<?xml version="1.0" encoding="UTF-8"?>
<svg version="1.1" xmlns="http://www.w3.org/2000/svg" width="774" height="666">
<path d="M0 0 C255.42 0 510.84 0 774 0 C774 219.78 774 439.56 774 666 C518.58 666 263.16 666 0 666 C0 446.22 0 226.44 0 0 Z " fill="#FFFFFF" transform="translate(0,0)"/>
<path d="M0 0 C2.66148909 1.27242652 5.07233827 2.65600662 7.4765625 4.36328125 C8.13809326 4.83137207 8.79962402 5.29946289 9.48120117 5.78173828 C10.18865479 6.28688965 10.8961084 6.79204102 11.625 7.3125 C12.36919189 7.84085449 13.11338379 8.36920898 13.88012695 8.91357422 C20.85722315 13.87626462 27.79548965 18.89277698 34.73046875 23.9140625 C39.03506452 27.02916743 43.35784003 30.11815456 47.68579102 33.20068359 C50.85429528 35.45996489 54.01374728 37.73103427 57.1640625 40.015625 C65.06379816 45.74433401 72.9947598 51.41939413 81 57 C89.6509898 63.03218111 98.21746091 69.17288396 106.75146484 75.36914062 C109.86535867 77.62764342 112.98485873 79.87834113 116.10449219 82.12890625 C118.37411393 83.76675802 120.64225055 85.40664822 122.91015625 87.046875 C125.41283507 88.85626371 127.91972677 90.65931787 130.43359375 92.453125 C131.40425781 93.14921875 132.37492188 93.8453125 133.375 94.5625 C134.18710937 95.14128906 134.99921875 95.72007812 135.8359375 96.31640625 C140.31940439 99.80444638 142.45977988 102.39237373 143.97949219 107.93896484 C144.31025757 109.09483093 144.64102295 110.25069702 144.98181152 111.44158936 C145.48581482 113.20300262 145.48581482 113.20300262 146 115 C146.68884724 117.13275994 147.39083284 119.26132494 148.10644531 121.38525391 C148.46651672 122.45570953 148.82658813 123.52616516 149.1975708 124.62905884 C149.57065369 125.73373505 149.94373657 126.83841125 150.328125 127.9765625 C151.13558453 130.38145406 151.94287138 132.78640361 152.75 135.19140625 C154.00783414 138.93375947 155.26680348 142.67572033 156.52929688 146.41650391 C157.75790078 150.06019476 158.98093226 153.70571705 160.203125 157.3515625 C160.77489471 159.03894028 160.77489471 159.03894028 161.35821533 160.76040649 C161.7056781 161.79934052 162.05314087 162.83827454 162.41113281 163.90869141 C162.71883606 164.82212311 163.02653931 165.73555481 163.34356689 166.67666626 C164 169 164 169 164 172 C160.74968273 171.35575667 157.49980394 170.70932737 154.25 170.0625 C153.32960938 169.88009766 152.40921875 169.69769531 151.4609375 169.50976562 C150.57148438 169.33251953 149.68203125 169.15527344 148.765625 168.97265625 C147.94868164 168.81031494 147.13173828 168.64797363 146.29003906 168.48071289 C145.15646973 168.24276001 145.15646973 168.24276001 144 168 C143.28924316 167.86706543 142.57848633 167.73413086 141.84619141 167.59716797 C138.65244469 166.56412056 137.0539858 163.66552876 135.125 161.0625 C134.1459103 159.77988916 133.16673971 158.49734007 132.1875 157.21484375 C131.67058594 156.53019043 131.15367187 155.84553711 130.62109375 155.14013672 C127.82109306 151.44362978 124.97163619 147.78563689 122.125 144.125 C121.53702637 143.36687012 120.94905273 142.60874023 120.34326172 141.82763672 C115.84665612 136.04453298 111.27888077 130.32295857 106.58959961 124.69458008 C104.14462786 121.74237729 101.82735199 118.83247453 99.80859375 115.5703125 C92.68910319 104.63540435 82.35431495 100.15799185 70.93701172 94.47851562 C66.91310075 92.45284606 62.98575386 90.27513864 59.0625 88.0625 C57.6316951 87.26399191 56.20070002 86.46582449 54.76953125 85.66796875 C53.17965978 84.77869539 51.58981864 83.88936781 50 83 C47.94140843 81.85025651 45.88281453 80.7005172 43.82421875 79.55078125 C41.63271215 78.32570032 39.4413054 77.10044076 37.25 75.875 C36.24461182 75.31304932 35.23922363 74.75109863 34.20336914 74.17211914 C32.18307936 73.04089496 30.17735625 71.88330073 28.1862793 70.70141602 C25.00197022 68.8853846 25.00197022 68.8853846 21.32348633 67.78100586 C17.01502627 66.10544656 13.83133317 64.72737351 11 61 C7.30643284 52.14338416 6.47964825 42.24395272 5.1875 32.8125 C4.78368427 30.19247615 4.37423217 27.57331444 3.95898438 24.95507812 C3.05551008 19.20126184 2.20647186 13.44239022 1.40568542 7.67341614 C1.01446495 5.09532222 0.53318702 2.55213976 0 0 Z " fill="#FFFFFF" transform="translate(298,99)"/>
<path d="M0 0 C0.66 0 1.32 0 2 0 C3.72787003 2.0051825 5.34023859 4.01900378 6.9375 6.125 C7.93736307 7.42067859 8.93736687 8.7162486 9.9375 10.01171875 C10.44796875 10.6773584 10.9584375 11.34299805 11.484375 12.02880859 C13.78063459 15.01527766 16.10804637 17.97689693 18.4375 20.9375 C18.88794678 21.51129395 19.33839355 22.08508789 19.80249023 22.67626953 C23.67751615 27.60687525 27.59571981 32.50228025 31.51928711 37.39428711 C35.33071316 42.15103052 39.10253355 46.93752715 42.85986328 51.73706055 C45.67647943 55.33003231 48.51977095 58.89993182 51.38183594 62.45678711 C58.40776785 71.18865573 65.22802972 80.07016481 72 89 C69.28969756 91.88166349 66.64134397 94.00987934 63.24609375 96.03125 C62.31933838 96.58804443 61.39258301 97.14483887 60.43774414 97.71850586 C59.44766357 98.30639893 58.45758301 98.89429199 57.4375 99.5 C55.34037576 100.76043839 53.24403172 102.0221757 51.1484375 103.28515625 C50.10526367 103.91309082 49.06208984 104.54102539 47.98730469 105.18798828 C43.81284885 107.72009119 39.68279453 110.31845688 35.5625 112.9375 C27.49781646 118.05702216 19.40813729 123.1350112 11.30249023 128.18945312 C6.49881239 131.18543622 1.69855968 134.18628518 -3.08705139 137.21107483 C-4.76785924 138.27319553 -6.44996029 139.33326884 -8.13208008 140.39331055 C-10.26047486 141.73495396 -12.38669271 143.08005839 -14.51049805 144.42895508 C-15.46351807 145.02861084 -16.41653809 145.6282666 -17.3984375 146.24609375 C-18.24067871 146.77904053 -19.08291992 147.3119873 -19.95068359 147.86108398 C-22 149 -22 149 -24 149 C-22.63818003 136.1398942 -20.67101482 123.43342387 -18.5 110.6875 C-18.15221269 108.62637907 -17.80489513 106.56517884 -17.45800781 104.50390625 C-16.70990702 100.06011685 -15.95993614 95.61664829 -15.20898438 91.17333984 C-13.9259464 83.57169464 -12.65686583 75.96773847 -11.390625 68.36328125 C-11.28078278 67.70364569 -11.17094055 67.04401012 -11.05776978 66.3643856 C-10.50507194 63.04492125 -9.95256249 59.72542557 -9.40014648 56.40591431 C-8.36674837 50.1975219 -7.33176408 43.98939402 -6.296875 37.78125 C-5.9107991 35.46484511 -5.52473128 33.14843888 -5.13867188 30.83203125 C-3.42578125 20.5546875 -1.71289062 10.27734375 0 0 Z " fill="#FFFFFF" transform="translate(387,218)"/>
<path d="M0 0 C3.45064709 1.32022419 6.68240276 2.82206449 9.9296875 4.58203125 C10.87779297 5.09507813 11.82589844 5.608125 12.80273438 6.13671875 C13.81658203 6.68972656 14.83042969 7.24273437 15.875 7.8125 C16.93783203 8.39 18.00066406 8.9675 19.09570312 9.5625 C27.22975279 13.9975052 35.29904352 18.54055867 43.35107422 23.12231445 C50.18792202 27.00289204 57.07805909 30.77362028 64 34.5 C72.25395506 38.95552514 80.49298615 43.43590094 88.6875 48 C89.64978516 48.52787109 90.61207031 49.05574219 91.60351562 49.59960938 C92.50134766 50.10298828 93.39917969 50.60636719 94.32421875 51.125 C95.10885498 51.56070313 95.89349121 51.99640625 96.7019043 52.4453125 C102.34921111 56.26577885 105.11434421 60.58547188 107.79296875 66.6484375 C108.30911743 67.77885719 108.30911743 67.77885719 108.83569336 68.93211365 C109.9635882 71.4084079 111.07565439 73.89146351 112.1875 76.375 C112.97002398 78.10294992 113.75365099 79.83040071 114.53833008 81.55737305 C115.76294135 84.25324612 116.98654547 86.94953674 118.20585632 89.64781189 C121.16122767 96.1830618 124.17504456 102.68906646 127.21875 109.18359375 C128.05978141 110.98317506 128.90068513 112.78281605 129.74145508 114.58251953 C130.96056644 117.1918371 132.18166 119.80011193 133.40975952 122.4052124 C134.54472499 124.81501759 135.6698992 127.22916446 136.79296875 129.64453125 C137.13473145 130.36354111 137.47649414 131.08255096 137.82861328 131.823349 C138.6130955 133.52216966 139.31548042 135.25849578 140 137 C139.67 137.66 139.34 138.32 139 139 C138.21165771 138.47269287 137.42331543 137.94538574 136.61108398 137.40209961 C120.77557991 126.81323948 104.90660615 116.28300943 88.93066406 105.90673828 C84.0522966 102.73279211 79.18398496 99.54348119 74.31454468 96.35586548 C64.56811601 89.97649052 54.80720035 83.62057818 45.01953125 77.3046875 C42.83438656 75.89300795 40.65138207 74.47806104 38.46875 73.0625 C37.71086182 72.57120605 36.95297363 72.07991211 36.17211914 71.57373047 C34.74132166 70.64612725 33.31079474 69.7181065 31.88061523 68.78955078 C31.22778564 68.36657715 30.57495605 67.94360352 29.90234375 67.5078125 C29.30106659 67.11161713 28.69978943 66.71542175 28.08029175 66.30722046 C26.04285856 64.98667008 26.04285856 64.98667008 23.98124695 63.95495605 C19.16700798 61.36480779 17.02245144 59.21267768 15.41793823 53.97470093 C15.21556549 53.207034 15.01319275 52.43936707 14.8046875 51.6484375 C14.56388458 50.83492828 14.32308167 50.02141907 14.07498169 49.18325806 C13.31328472 46.5877418 12.59331215 43.982817 11.875 41.375 C11.386919 39.67887798 10.8960533 37.98355471 10.40234375 36.2890625 C9.66511236 33.75356905 8.93152185 31.21741067 8.21160889 28.67694092 C6.23400147 21.70094459 4.07557287 14.79069367 1.83444214 7.89511108 C0 2.20442888 0 2.20442888 0 0 Z " fill="#FFFFFF" transform="translate(179,99)"/>
<path d="M0 0 C0 3.40259464 -0.75093475 4.86240007 -2.2734375 7.875 C-2.76303955 8.84977295 -3.2526416 9.8245459 -3.75708008 10.82885742 C-4.29099365 11.87533447 -4.82490723 12.92181152 -5.375 14 C-6.19810669 15.62869019 -6.19810669 15.62869019 -7.0378418 17.2902832 C-10.63026352 24.37569866 -14.28798725 31.42498789 -18.00854492 38.44384766 C-21.456917 44.94972689 -24.85140222 51.48285082 -28.23135376 58.0244751 C-29.18655533 59.87317168 -30.14242561 61.72152131 -31.09838867 63.56982422 C-34.10386611 69.3827933 -37.10384791 75.1985064 -40.09120178 81.02081299 C-41.44226968 83.6530884 -42.79591311 86.28403514 -44.14981079 88.91485596 C-44.79106298 90.16268395 -45.43105376 91.41116112 -46.06967163 92.66033936 C-51.24368437 102.78027889 -55.73606814 111.38227149 -64.25 119 C-65.6775039 120.30683241 -67.10457243 121.61414052 -68.53125 122.921875 C-69.26601563 123.59025391 -70.00078125 124.25863281 -70.7578125 124.94726562 C-73.72957225 127.66792721 -76.6590416 130.43141025 -79.58129883 133.20507812 C-81.02849542 134.56967552 -82.48678268 135.92260471 -83.95581055 137.26367188 C-87.12882857 140.17254201 -90.08564836 142.9584772 -92.61328125 146.453125 C-96.38705075 151.14776648 -99.91568813 153.66369126 -105.80541992 154.61401367 C-107.15492177 154.65539196 -108.50534047 154.6725547 -109.85546875 154.66796875 C-110.57160339 154.6817305 -111.28773804 154.69549225 -112.02557373 154.70967102 C-119.35924109 154.80392311 -126.68282446 154.4649645 -134 154 C-131.28520916 151.19780444 -128.74216395 148.5983206 -125.3984375 146.5703125 C-124.74230469 146.16683594 -124.08617187 145.76335937 -123.41015625 145.34765625 C-122.73855469 144.94417969 -122.06695312 144.54070312 -121.375 144.125 C-119.34433335 142.88560704 -117.31851925 141.64437806 -115.31225586 140.36572266 C-113 139 -113 139 -110.15844727 137.73974609 C-105.30850633 135.33669831 -102.60256505 133.51953861 -100.56542969 128.38232422 C-99.61572729 124.60067808 -99.03597492 120.7791188 -98.52633667 116.91622925 C-98.18104208 114.32656645 -97.76878577 111.7550616 -97.34008789 109.17797852 C-96.04492574 101.21346617 -94.98280694 93.25325524 -94.24842834 85.21737671 C-91.70154929 57.58314638 -91.70154929 57.58314638 -84.57421875 51.10546875 C-80.04462098 47.89064423 -75.18284435 45.61269792 -70.09375 43.42236328 C-64.78940239 40.98366937 -60.01311111 37.73445687 -55.125 34.5625 C-53.11587316 33.30314714 -51.10413622 32.04794899 -49.08984375 30.796875 C-42.95401973 26.97148431 -36.81988618 23.14339959 -30.6875 19.3125 C-29.70217285 18.69697266 -28.7168457 18.08144531 -27.70166016 17.44726562 C-18.44816705 11.66248767 -9.21971418 5.83842749 0 0 Z " fill="#FFFFFF" transform="translate(449,325)"/>
<path d="M0 0 C6.27 0 12.54 0 19 0 C24.28 15.84 29.56 31.68 35 48 C36.67633082 45.48550377 37.49528363 43.8582635 38.38867188 41.06689453 C38.64233521 40.2824295 38.89599854 39.49796448 39.15734863 38.68972778 C39.55899231 37.42405472 39.55899231 37.42405472 39.96875 36.1328125 C40.24972534 35.26107391 40.53070068 34.38933533 40.82019043 33.49118042 C41.71785733 30.70384429 42.60924682 27.91455247 43.5 25.125 C44.39174736 22.34292149 45.28483059 19.56128353 46.17980957 16.78024292 C46.73620004 15.05022751 47.29056849 13.31956014 47.84265137 11.58816528 C48.22314636 10.40201126 48.22314636 10.40201126 48.61132812 9.19189453 C48.8317981 8.5014505 49.05226807 7.81100647 49.27941895 7.09963989 C50.10209055 4.70252703 51.0587654 2.3530865 52 0 C57.94 0 63.88 0 70 0 C77.3828125 22.1484375 77.3828125 22.1484375 78.18786621 24.56408691 C78.71685349 26.15072448 79.24622879 27.73723274 79.77600098 29.3236084 C80.94240414 32.81765926 82.10494936 36.31270092 83.24804688 39.81445312 C83.60447266 40.90177734 83.96089844 41.98910156 84.328125 43.109375 C84.78300293 44.50881348 84.78300293 44.50881348 85.24707031 45.93652344 C85.82192748 47.96255649 85.82192748 47.96255649 87 49 C87.17095184 48.47461639 87.34190369 47.94923279 87.51803589 47.40792847 C89.30229436 41.92453795 91.08685241 36.441245 92.87158203 30.95800781 C93.53702302 28.91343632 94.20238841 26.86884023 94.86767578 24.82421875 C95.82564593 21.88014306 96.78389067 18.93615687 97.7421875 15.9921875 C98.03809784 15.0825827 98.33400818 14.17297791 98.6388855 13.23580933 C98.91902496 12.37537018 99.19916443 11.51493103 99.48779297 10.62841797 C99.73206024 9.87785126 99.97632751 9.12728455 100.22799683 8.35397339 C101.14229583 5.56611501 102.07220169 2.78339492 103 0 C108.94 0 114.88 0 121 0 C118.93996207 8.11897302 116.38151705 16.01965515 113.68920898 23.94604492 C112.08963569 28.66959605 110.55742536 33.40459456 109.10546875 38.17578125 C106.78808392 45.76707911 104.27422112 53.28816892 101.75 60.8125 C101.28631567 62.19851999 100.82277329 63.58458747 100.359375 64.97070312 C99.24146926 68.31443904 98.12068617 71.65718992 97 75 C90.4 75 83.8 75 77 75 C76.18015625 72.52886719 75.3603125 70.05773437 74.515625 67.51171875 C73.70837913 65.08215175 72.90060087 62.65276236 72.09277344 60.22338867 C71.53753083 58.55267461 70.9828299 56.88178043 70.42871094 55.21069336 C67.40566925 46.09518589 64.36952802 36.9950329 61 28 C59.26551229 30.60173156 58.43401239 32.36346051 57.50366211 35.27197266 C57.22675034 36.12941071 56.94983856 36.98684875 56.66453552 37.87026978 C56.37176224 38.79222137 56.07898895 39.71417297 55.77734375 40.6640625 C55.47180069 41.61187592 55.16625763 42.55968933 54.85145569 43.53622437 C53.87572748 46.5644195 52.90612793 49.59452689 51.9375 52.625 C50.96474636 55.66242744 49.99064512 58.69939612 49.01283264 61.73519897 C48.40429937 63.62501325 47.79878959 65.51580416 47.19651794 67.40762329 C46.92275833 68.25875702 46.64899872 69.10989075 46.36694336 69.98681641 C46.12648788 70.73943756 45.88603241 71.49205872 45.63829041 72.26748657 C45 74 45 74 44 75 C42.58429877 75.08651611 41.164405 75.10704904 39.74609375 75.09765625 C38.89208984 75.09443359 38.03808594 75.09121094 37.15820312 75.08789062 C36.26037109 75.07951172 35.36253906 75.07113281 34.4375 75.0625 C33.53580078 75.05798828 32.63410156 75.05347656 31.70507812 75.04882812 C29.46998366 75.03700223 27.23503507 75.01968245 25 75 C22.04035333 67.85398838 19.45450047 60.63267593 17.03125 53.2890625 C16.48797058 51.6549794 16.48797058 51.6549794 15.93371582 49.98788452 C14.78629544 46.53452749 13.64306188 43.07980183 12.5 39.625 C11.73335338 37.31501107 10.96642864 35.00511442 10.19921875 32.6953125 C8.45960735 27.45656301 6.72161763 22.21728578 4.98999023 16.97589111 C4.28841824 14.86697952 3.57877831 12.76074407 2.86352539 10.65643311 C2.49670654 9.57404358 2.1298877 8.49165405 1.75195312 7.37646484 C1.41651489 6.39398773 1.08107666 5.41151062 0.73547363 4.39926147 C0 2 0 2 0 0 Z " fill="#FFFFFF" transform="translate(235,540)"/>
<path d="M0 0 C4.04289725 1.82984838 5.79144032 4.02850067 8.4375 7.625 C9.31422014 8.79981167 10.19324195 9.97290821 11.07421875 11.14453125 C11.77683838 12.07966553 11.77683838 12.07966553 12.49365234 13.03369141 C15.67949429 17.19232528 19.02933541 21.22093718 22.35717773 25.26611328 C23.3942645 26.53184782 24.42440876 27.803305 25.44726562 29.08056641 C26.5148268 30.40024659 27.60910898 31.69861282 28.72460938 32.97802734 C31.88556482 36.77728827 33.78666617 39.4910595 33.34570312 44.67871094 C33.23162109 45.44473633 33.11753906 46.21076172 33 47 C32.80567383 48.47001465 32.80567383 48.47001465 32.60742188 49.96972656 C32.09068409 53.38120914 31.43467625 56.74346009 30.75 60.125 C30.4715625 61.85556641 30.4715625 61.85556641 30.1875 63.62109375 C29.19730185 68.39054815 28.46767543 71.84615063 24.53833008 74.93530273 C21.41580101 76.51772956 18.2790507 77.77691168 15 79 C12.94589352 79.93103791 10.89769433 80.87521375 8.85546875 81.83203125 C6.63428412 82.82880665 4.41154835 83.82213073 2.1875 84.8125 C1.59269836 85.07824829 0.99789673 85.34399658 0.3850708 85.61779785 C-11.42302452 90.89343435 -23.27162099 96.07709194 -35.125 101.25 C-35.99468414 101.62984039 -36.86436829 102.00968079 -37.76040649 102.40103149 C-40.23801955 103.48248574 -42.7164882 104.56195042 -45.1953125 105.640625 C-45.9408992 105.96606796 -46.6864859 106.29151093 -47.45466614 106.6268158 C-50.28190362 107.85461095 -53.07412273 109.02470758 -56 110 C-54.48943284 104.95306249 -52.33992254 100.48477074 -49.921875 95.83203125 C-49.51883652 95.048246 -49.11579803 94.26446075 -48.70054626 93.45692444 C-47.38781336 90.90663744 -46.06899732 88.35955188 -44.75 85.8125 C-43.8353471 84.03875273 -42.92104315 82.26482547 -42.00708008 80.49072266 C-39.3437303 75.32420462 -36.67257522 70.16175019 -34 65 C-33.30967001 63.66555997 -32.61939762 62.33109013 -31.92919922 60.99658203 C-29.0885211 55.50526808 -26.24224517 50.01689005 -23.390625 44.53125 C-20.91353709 39.76468793 -18.44643377 34.99308338 -15.984375 30.21875 C-15.30250719 28.89728943 -14.62062252 27.57583755 -13.9387207 26.25439453 C-12.95325816 24.34462398 -11.96820265 22.43465091 -10.98471069 20.52386475 C-7.43087259 13.61964673 -3.83094773 6.75505807 0 0 Z " fill="#FFFFFF" transform="translate(465,317)"/>
<path d="M0 0 C9.4978125 -0.12375 9.4978125 -0.12375 19.1875 -0.25 C21.1574292 -0.28641602 23.1273584 -0.32283203 25.15698242 -0.36035156 C37.44260423 -0.49270013 49.43967685 0.01886334 59.34765625 8.29296875 C63.31737717 12.39407523 66.58572113 17.20009578 67 23 C67.0928125 24.07701172 67.0928125 24.07701172 67.1875 25.17578125 C67.51564019 31.76934824 66.44462959 37.30970029 63 43 C60.05179617 46.20456938 56.91203127 49.04398436 53 51 C54.5558261 55.6323184 57.07618701 59.16896731 59.9375 63.0625 C60.38029297 63.67416016 60.82308594 64.28582031 61.27929688 64.91601562 C63.08979241 67.41185522 64.90956245 69.88505679 66.81640625 72.30859375 C68 74 68 74 68 76 C51.12709049 77.36534033 51.12709049 77.36534033 46.42578125 74.34765625 C44.64897308 71.99100392 43.33925459 69.62833538 42 67 C40.70715163 65.17343065 39.39469645 63.36057261 38.0625 61.5625 C35 57.26153846 35 57.26153846 35 55 C29.39 55 23.78 55 18 55 C18 61.93 18 68.86 18 76 C12.06 76 6.12 76 0 76 C0 50.92 0 25.84 0 0 Z " fill="#FFFFFF" transform="translate(550,539)"/>
<path d="M0 0 C7.074375 -0.061875 14.14875 -0.12375 21.4375 -0.1875 C24.76026001 -0.22846802 24.76026001 -0.22846802 28.15014648 -0.27026367 C29.93212338 -0.27903643 31.71410636 -0.28667849 33.49609375 -0.29296875 C34.40008911 -0.30831665 35.30408447 -0.32366455 36.23547363 -0.33947754 C46.56040577 -0.34367296 53.45274901 2.4257572 60.890625 9.62109375 C66.258779 15.67517854 66.54829713 21.88426573 66.35546875 29.80859375 C65.62440527 36.37209775 62.74601119 42.38225938 58 47 C48.61245367 53.26445212 40.64423428 54.29599412 29.5625 54.125 C28.44939453 54.11597656 27.33628906 54.10695313 26.18945312 54.09765625 C23.45954191 54.07422354 20.72974231 54.03835703 18 54 C18 60.93 18 67.86 18 75 C12.06 75 6.12 75 0 75 C0 50.25 0 25.5 0 0 Z " fill="#FFFFFF" transform="translate(630,540)"/>
<path d="M0 0 C1.00675781 0.24234375 2.01351562 0.4846875 3.05078125 0.734375 C11.54812141 3.38025337 15.48430903 6.8686786 19.6640625 14.734375 C23.17614873 23.31947469 20.25670543 31.30899754 18 40 C15.49053993 37.56024716 13.18704932 35.27135823 11.19628906 32.38330078 C7.73289862 28.62500626 4.45470776 29.11380676 -0.44628906 28.8984375 C-21.78842207 28.7669327 -37.68158667 36.0180376 -53 51 C-55.36420555 53.56535143 -55.36420555 53.56535143 -57.25 56.0625 C-60.85326531 60.6011077 -64.56495412 65.01062367 -68.375 69.375 C-73.20337952 74.909175 -77.97393301 80.48604873 -82.66162109 86.14013672 C-83.75326789 87.4447475 -84.87359909 88.72527531 -86 90 C-86.33 90 -86.66 90 -87 90 C-86.3124782 81.92602607 -84.6374766 74.1487065 -82.875 66.25 C-82.56340757 64.83806861 -82.25188527 63.42612174 -81.94042969 62.01416016 C-79.56104613 51.2828126 -77.02912326 40.59140944 -74.39794922 29.91894531 C-72.44387247 21.9746166 -70.6742934 14.00794926 -69 6 C-59.51182893 7.27538345 -50.27254641 9.19456442 -40.96069336 11.41088867 C-39.52608765 11.73923706 -39.52608765 11.73923706 -38.0625 12.07421875 C-37.20785156 12.27619873 -36.35320313 12.47817871 -35.47265625 12.6862793 C-30.36531619 13.33427811 -26.96643989 11.6210555 -22.65625 9.0234375 C-21.65722656 8.435625 -20.65820312 7.8478125 -19.62890625 7.2421875 C-17.53952294 5.99533953 -15.45358104 4.74270689 -13.37109375 3.484375 C-12.37207031 2.89914062 -11.37304688 2.31390625 -10.34375 1.7109375 C-8.98540039 0.89568604 -8.98540039 0.89568604 -7.59960938 0.06396484 C-4.51748385 -1.1974836 -3.14003025 -0.95310148 0 0 Z " fill="#FFFFFF" transform="translate(592,288)"/>
<path d="M0 0 C6.6 0 13.2 0 20 0 C25.34988251 10.56999941 30.45521917 21.19669047 35.3125 32 C36.61087314 34.87680208 37.91101267 37.75280508 39.2109375 40.62890625 C39.53047897 41.33680801 39.85002045 42.04470978 40.179245 42.77406311 C42.23623508 47.32687439 44.31640487 51.86811912 46.4140625 56.40234375 C46.92799561 57.51416016 47.44192871 58.62597656 47.97143555 59.77148438 C48.92833206 61.83793467 49.88800534 63.90310206 50.85083008 65.96679688 C51.27001709 66.87365234 51.6892041 67.78050781 52.12109375 68.71484375 C52.66914673 69.89228149 52.66914673 69.89228149 53.22827148 71.09350586 C54 73 54 73 54 75 C47.73 75 41.46 75 35 75 C32.47685875 70.02011595 30.07447818 65.18619546 28 60 C16.12 59.67 4.24 59.34 -8 59 C-8.99 62.3 -9.98 65.6 -11 69 C-11.99 70.98 -12.98 72.96 -14 75 C-20.27 75 -26.54 75 -33 75 C-26.94655381 60.7198659 -20.68488852 46.54947917 -14.25 32.4375 C-6.90192715 16.31589233 -6.90192715 16.31589233 0 0 Z " fill="#FFFFFF" transform="translate(184,540)"/>
<path d="M0 0 C5.94 0 11.88 0 18 0 C18 9.57 18 19.14 18 29 C29.22 29 40.44 29 52 29 C52 19.43 52 9.86 52 0 C57.61 0 63.22 0 69 0 C69 24.75 69 49.5 69 75 C63.39 75 57.78 75 52 75 C52 64.77 52 54.54 52 44 C40.78 44 29.56 44 18 44 C18 54.23 18 64.46 18 75 C12.06 75 6.12 75 0 75 C0 50.25 0 25.5 0 0 Z " fill="#FFFFFF" transform="translate(74,540)"/>
<path d="M0 0 C5.94 0 11.88 0 18 0 C18.33 10.89 18.66 21.78 19 33 C26.36100652 25.72445268 26.36100652 25.72445268 33.375 18.125 C33.92542969 17.50882813 34.47585938 16.89265625 35.04296875 16.2578125 C36.13750579 14.9950532 37.21736531 13.71767395 38.23681641 12.39355469 C46.43615336 1.81207621 46.43615336 1.81207621 52.54785156 0.41943359 C58.41923388 -0.11917736 64.15774974 0.31850122 70 1 C66.62289504 5.66786126 63.2327662 9.99870731 59.0625 14 C55.38846042 17.591415 51.94414938 21.27013897 48.60546875 25.171875 C46.19609709 27.9153931 43.61287791 30.45085082 41 33 C42.75280848 37.16940243 45.60315524 40.40679187 48.4375 43.875 C49.52397858 45.21831256 50.60990338 46.56207317 51.6953125 47.90625 C52.24606445 48.586875 52.79681641 49.2675 53.36425781 49.96875 C57.21910543 54.75566525 60.99582072 59.60471408 64.78222656 64.44580078 C65.93202602 65.91324732 67.08694871 67.37667545 68.2421875 68.83984375 C68.88414062 69.65582031 69.52609375 70.47179687 70.1875 71.3125 C70.73792969 72.00988281 71.28835938 72.70726562 71.85546875 73.42578125 C73 75 73 75 73 76 C67.43527413 76.4164468 61.88937276 76.64984606 56.30859375 76.53125 C55.38876709 76.51384766 54.46894043 76.49644531 53.52124023 76.47851562 C50.43235128 75.89226382 49.14719264 74.81910563 47 72.5625 C46.57460938 71.758125 46.14921875 70.95375 45.7109375 70.125 C43.24915445 65.6285926 39.93454961 61.95818396 36.625 58.0625 C35.38453073 56.57712647 34.14732246 55.08902086 32.9140625 53.59765625 C32.3773291 52.95320557 31.8405957 52.30875488 31.28759766 51.64477539 C30 50 30 50 29 48 C24.83574799 49.60163539 21.48481342 52.32232796 19 56 C18.15090104 59.46435237 18.1148573 62.81998322 18.125 66.375 C18.104375 67.30183594 18.08375 68.22867188 18.0625 69.18359375 C18.01565983 71.45534184 18.00426309 73.72777307 18 76 C12.06 76 6.12 76 0 76 C0 50.92 0 25.84 0 0 Z " fill="#FFFFFF" transform="translate(366,539)"/>
<path d="M0 0 C19.14 0 38.28 0 58 0 C58 4.62 58 9.24 58 14 C44.47 14 30.94 14 17 14 C17 19.28 17 24.56 17 30 C28.88 30 40.76 30 53 30 C53 34.62 53 39.24 53 44 C41.45 44 29.9 44 18 44 C18 49.28 18 54.56 18 60 C31.86 60 45.72 60 60 60 C60 64.95 60 69.9 60 75 C40.2 75 20.4 75 0 75 C0 50.25 0 25.5 0 0 Z " fill="#FFFFFF" transform="translate(478,540)"/>
<path d="M0 0 C-0.15338196 2.54402487 -0.3679873 5.06382128 -0.6484375 7.59765625 C-1.04741339 11.04105298 -1.04741339 11.04105298 -1.1015625 14.68359375 C-1.53733995 19.63422824 -1.92165113 23.96636771 -5.56591797 27.53222656 C-9.87084314 30.73573735 -14.62122281 33.14964954 -19.37939453 35.60351562 C-23.82626008 37.97318871 -28.05222284 40.68870508 -32.3125 43.375 C-34.08896343 44.47798161 -35.86631418 45.57953532 -37.64453125 46.6796875 C-38.52963379 47.22850586 -39.41473633 47.77732422 -40.32666016 48.34277344 C-44.71642528 51.06402692 -49.10833324 53.78181699 -53.5 56.5 C-54.36818359 57.03753906 -55.23636719 57.57507813 -56.13085938 58.12890625 C-60.46775582 60.81411162 -64.80537281 63.49813874 -69.14453125 66.1796875 C-69.99394287 66.70667236 -70.84335449 67.23365723 -71.71850586 67.77661133 C-73.45610596 68.84730007 -75.20054121 69.90697029 -76.95141602 70.95581055 C-81.63997533 73.78852653 -86.02646584 76.74658184 -90.3203125 80.15234375 C-108.29470736 93.78956639 -125.36140119 92.65757651 -147 91 C-143.90552177 87.72902839 -140.27724032 85.60563139 -136.4375 83.3125 C-134.80043216 82.32349427 -133.16373541 81.33387412 -131.52734375 80.34375 C-130.63901855 79.8075 -129.75069336 79.27125 -128.83544922 78.71875 C-123.70716278 75.61016239 -118.60510693 72.45895496 -113.5 69.3125 C-111.26435252 67.93614983 -109.02867505 66.55984837 -106.79296875 65.18359375 C-102.31588084 62.42663323 -97.83943573 59.66863194 -93.36328125 56.91015625 C-82.98728151 50.51780616 -72.60322379 44.13995732 -62.1875 37.8125 C-52.30803065 31.81005209 -42.47114119 25.74120184 -32.64990234 19.64404297 C-27.13709788 16.22380847 -21.61846721 12.81297226 -16.10107422 9.40014648 C-14.88121826 8.64519897 -14.88121826 8.64519897 -13.63671875 7.875 C-12.86118652 7.39546875 -12.0856543 6.9159375 -11.28662109 6.421875 C-9.73876698 5.45938275 -8.19491417 4.49043079 -6.65478516 3.515625 C-5.92952637 3.05671875 -5.20426758 2.5978125 -4.45703125 2.125 C-3.81354736 1.71507812 -3.17006348 1.30515625 -2.50708008 0.8828125 C-1 0 -1 0 0 0 Z " fill="#FFFFFF" transform="translate(349,388)"/>
<path d="M0 0 C3.96359078 0.58957094 7.65149012 1.42216326 11.45703125 2.671875 C12.48892578 3.00703125 13.52082031 3.3421875 14.58398438 3.6875 C16.18209961 4.2134375 16.18209961 4.2134375 17.8125 4.75 C24.87009755 7.06250833 31.93921679 9.2974633 39.0703125 11.37109375 C48.78321244 14.19798151 58.42178874 17.25000408 68.0625 20.3125 C69.81570466 20.86799811 71.56895964 21.42333741 73.32226562 21.97851562 C77.54875657 23.31718959 81.77457091 24.65797833 86 26 C85.85137723 27.4220226 85.70004903 28.84376258 85.54760742 30.26538086 C85.42164436 31.45302284 85.42164436 31.45302284 85.2931366 32.66465759 C84.87086759 36.02876403 84.11297429 39.26940958 83.3125 42.5625 C83.05956177 43.60869507 83.05956177 43.60869507 82.80151367 44.67602539 C82.20777473 47.11905481 81.60405702 49.55950176 81 52 C80.62488281 53.52898926 80.62488281 53.52898926 80.2421875 55.08886719 C79.4361446 58.37270943 78.62539361 61.65534727 77.8125 64.9375 C77.55057861 65.998479 77.28865723 67.05945801 77.01879883 68.15258789 C76.77154053 69.14250732 76.52428223 70.13242676 76.26953125 71.15234375 C76.04885986 72.03913818 75.82818848 72.92593262 75.60083008 73.83959961 C75 76 75 76 74 78 C68.8849805 78.48320022 63.89373207 78.72814553 59 77 C54.99772743 73.5430106 52.33202521 69.55251344 49.45263672 65.14892578 C46.83698887 61.27952538 43.89488872 57.66217096 41 54 C39.80993836 52.47103162 38.6211236 50.94109187 37.43359375 49.41015625 C33.50692415 44.36158104 29.55550652 39.33274282 25.59765625 34.30859375 C22.99777137 31.00396695 20.41970909 27.68251398 17.84008789 24.36206055 C16.00830626 22.01066248 14.1675122 19.66659976 12.32421875 17.32421875 C11.11197917 15.77864583 9.89973958 14.23307292 8.6875 12.6875 C8.06810547 11.90310547 7.44871094 11.11871094 6.81054688 10.31054688 C5.92012695 9.17262695 5.92012695 9.17262695 5.01171875 8.01171875 C4.48022217 7.33584717 3.94872559 6.65997559 3.40112305 5.96362305 C2.03138861 4.04399 0.99115157 2.13581984 0 0 Z " fill="#FFFFFF" transform="translate(158,176)"/>
<path d="M0 0 C1.07282227 0.11891602 2.14564453 0.23783203 3.25097656 0.36035156 C5.18021973 0.61123535 5.18021973 0.61123535 7.1484375 0.8671875 C8.28122131 1.01190491 8.28122131 1.01190491 9.43688965 1.1595459 C15.80509361 1.97748905 22.16431461 2.85684921 28.5234375 3.7421875 C31.34205602 4.13134876 34.16079618 4.51961937 36.97955322 4.90777588 C38.85356627 5.16659503 40.72738817 5.42680213 42.60101318 5.68841553 C47.50599417 6.37232958 52.41261899 7.03390088 57.32519531 7.66113281 C58.32853912 7.79141876 59.33188293 7.92170471 60.3656311 8.05593872 C62.28477574 8.30443002 64.20466016 8.54729346 66.12533569 8.78366089 C66.98841339 8.89646393 67.85149109 9.00926697 68.74072266 9.12548828 C69.4974527 9.22080841 70.25418274 9.31612854 71.03384399 9.41433716 C73.32161396 9.90427407 75.10778955 10.73872641 77.1484375 11.8671875 C67.47176158 18.50174887 57.58478837 24.72535378 47.53491211 30.77978516 C46.60815674 31.33843262 45.68140137 31.89708008 44.7265625 32.47265625 C43.79908203 33.02099121 42.87160156 33.56932617 41.91601562 34.13427734 C39.11044804 35.83330789 39.11044804 35.83330789 36.49023438 37.88525391 C30.21112433 42.51879616 26.1561052 43.53839374 18.44042969 42.52783203 C17.77426636 42.42303528 17.10810303 42.31823853 16.42175293 42.21026611 C13.79845987 41.81437044 11.17132462 41.50163905 8.53613281 41.19482422 C2.10940855 40.44227517 -4.30829307 39.62578302 -10.7265625 38.8046875 C-12.97521662 38.51983636 -15.22391425 38.23532842 -17.47265625 37.95117188 C-22.93279941 37.26046554 -28.39239071 36.56552765 -33.8515625 35.8671875 C-33.8515625 35.2071875 -33.8515625 34.5471875 -33.8515625 33.8671875 C-33.1915625 33.8671875 -32.5315625 33.8671875 -31.8515625 33.8671875 C-31.62339844 33.32835937 -31.39523438 32.78953125 -31.16015625 32.234375 C-29.45515099 29.15009682 -27.2213799 26.63152179 -24.9140625 23.9921875 C-20.26703652 18.60020655 -15.81624276 13.08585384 -11.46899414 7.44970703 C-10.27700866 5.91138788 -9.06527227 4.38842509 -7.8515625 2.8671875 C-7.40893066 2.30966797 -6.96629883 1.75214844 -6.51025391 1.17773438 C-4.18136933 -0.6623381 -2.92482487 -0.3356182 0 0 Z " fill="#FFFFFF" transform="translate(278.8515625,270.1328125)"/>
<path d="M0 0 C4.51580612 0.53421736 7.55123633 2.44389049 11.1875 5 C12.5236557 5.91434634 13.86099026 6.82697132 15.19921875 7.73828125 C15.95122559 8.25213379 16.70323242 8.76598633 17.47802734 9.29541016 C22.44557704 12.6529544 27.47770589 15.91268399 32.5 19.1875 C33.63321442 19.9276988 34.76635193 20.66801537 35.89941406 21.40844727 C41.20890323 24.8773951 46.52194279 28.34083116 51.83984375 31.796875 C61.9508393 38.3701178 72.03837418 44.97821561 82.0864563 51.64724731 C83.31621895 52.46291925 84.54674449 53.2774422 85.77804565 54.09078979 C87.48842996 55.22119126 89.19577863 56.35603123 90.90234375 57.4921875 C91.88710693 58.14558105 92.87187012 58.79897461 93.88647461 59.47216797 C94.58393799 59.97635254 95.28140137 60.48053711 96 61 C96 61.33 96 61.66 96 62 C87.27160273 61.35589689 78.61428296 60.3887504 69.9375 59.25 C68.9516391 59.12177856 68.9516391 59.12177856 67.94586182 58.9909668 C54.88260989 57.29111197 41.84279042 55.43385455 28.8046875 53.55223083 C27.72767578 53.39682579 27.72767578 53.39682579 26.62890625 53.23828125 C25.55817871 53.08378258 25.55817871 53.08378258 24.46582031 52.92616272 C12.65209644 51.22569993 0.82555095 49.61575207 -11 48 C-10.43655437 44.48602782 -9.81895535 41.0182023 -8.984375 37.55859375 C-8.78739014 36.73705811 -8.59040527 35.91552246 -8.38745117 35.0690918 C-8.17709229 34.2006665 -7.9667334 33.33224121 -7.75 32.4375 C-7.30332329 30.57813992 -6.85671073 28.71876444 -6.41015625 26.859375 C-6.1795752 25.90224609 -5.94899414 24.94511719 -5.71142578 23.95898438 C-4.52809215 19.0372261 -3.35841921 14.11222354 -2.1875 9.1875 C-1.7643861 7.41014121 -1.34121494 5.63279604 -0.91796875 3.85546875 C-0.46357422 1.94701172 -0.46357422 1.94701172 0 0 Z " fill="#FFFFFF" transform="translate(253,208)"/>
<path d="M0 0 C3.7954962 1.42851514 7.26898445 3.1637505 10.8125 5.1328125 C12.52832275 6.08317383 12.52832275 6.08317383 14.27880859 7.05273438 C15.51920985 7.74348218 16.75960688 8.43423759 18 9.125 C19.28839668 9.83951294 20.57697394 10.55370035 21.86572266 11.26757812 C24.55347377 12.75680975 27.2404359 14.24744972 29.92675781 15.73925781 C36.40427015 19.33564075 42.88897636 22.91899555 49.375 26.5 C50.28830582 27.00445648 50.28830582 27.00445648 51.22006226 27.519104 C60.10515392 32.42528268 69.01346461 37.2816809 78 42 C76.67823645 45.96529066 74.79064953 46.89819507 71.4375 49.375 C66.16721186 53.31864727 61.02406886 57.38466142 55.9375 61.5625 C49.42341681 66.89691057 42.7909244 72.02256109 36 77 C33.52859058 73.93771023 31.85815967 70.84424633 30.20703125 67.27734375 C29.66667236 66.11525391 29.12631348 64.95316406 28.56958008 63.75585938 C27.98375682 62.4831327 27.39806708 61.21034456 26.8125 59.9375 C26.20174134 58.61898988 25.59065065 57.30063352 24.97924805 55.98242188 C19.35076694 43.82898841 13.7892048 31.64423288 8.2434082 19.45288086 C7.91554321 18.73305527 7.58767822 18.01322968 7.24987793 17.27159119 C6.63956001 15.9314135 6.03011278 14.59083878 5.42175293 13.24977112 C4.10359248 10.35661908 2.74580434 7.50477492 1.29370117 4.67578125 C0 2 0 2 0 0 Z " fill="#FFFFFF" transform="translate(296,164)"/>
<path d="M0 0 C0.96550781 0.20753906 1.93101562 0.41507812 2.92578125 0.62890625 C11.1616657 2.38520273 19.40620632 4.08856786 27.66796875 5.71875 C28.43152176 5.86980698 29.19507477 6.02086395 29.98176575 6.17649841 C34.63626031 7.09718067 34.63626031 7.09718067 39.29238892 8.009552 C47.95376132 9.69870418 56.52939147 11.4924346 65 14 C62.8865589 26.60649075 59.83796432 38.90652382 56.68261719 51.28662109 C55.3698597 56.50478517 54.16940418 61.74793911 53 67 C43.88850123 58.09777593 36.21113713 47.81267396 28.39111328 37.78222656 C26.10154758 34.84894653 23.80031902 31.92484929 21.5 29 C18.67662568 25.40863951 15.85508828 21.81587671 13.0390625 18.21875 C12.55115234 17.59613281 12.06324219 16.97351563 11.56054688 16.33203125 C10.63662307 15.15292849 9.71339007 13.97328392 8.79101562 12.79296875 C6.64028362 10.04972154 4.45486803 7.36006991 2.1796875 4.71875 C0 2 0 2 0 0 Z " fill="#FFFFFF" transform="translate(449,278)"/>
<path d="M0 0 C-0.7755113 7.97769837 -2.08237102 15.84064021 -3.43359375 23.73828125 C-3.67404007 25.1507239 -3.9144415 26.56317419 -4.15480042 27.97563171 C-4.65635499 30.91841585 -5.16016845 33.8608035 -5.6652832 36.80297852 C-6.31139044 40.56897456 -6.94912461 44.33633782 -7.58488369 48.1040926 C-8.07728784 51.01391069 -8.57543401 53.92272434 -9.07518196 56.83128929 C-9.31288397 58.22037568 -9.548496 59.60982143 -9.78195 60.99962807 C-10.10827359 62.93868578 -10.44347069 64.87624384 -10.77905273 66.8137207 C-10.96700912 67.91464554 -11.15496552 69.01557037 -11.34861755 70.14985657 C-11.93985781 72.73684604 -12.68851652 74.7093073 -14 77 C-18.39626033 72.21703159 -22.7323035 67.42046884 -26.75 62.3125 C-30.22308825 57.8997987 -33.86719277 53.66340202 -37.5625 49.4375 C-42.23106158 44.09549154 -46.75814045 38.69180427 -51 33 C-49.62854859 29.70231845 -48.35973939 28.27895276 -45.2734375 26.51171875 C-44.49991943 26.05974121 -43.72640137 25.60776367 -42.92944336 25.14208984 C-42.08647705 24.6620752 -41.24351074 24.18206055 -40.375 23.6875 C-38.57029492 22.63376732 -36.76697215 21.5776646 -34.96484375 20.51953125 C-34.00433105 19.9570166 -33.04381836 19.39450195 -32.05419922 18.81494141 C-26.62716062 15.589953 -21.28446226 12.23052055 -15.9375 8.875 C-14.89706543 8.22362061 -13.85663086 7.57224121 -12.78466797 6.90112305 C-1.77827551 0 -1.77827551 0 0 0 Z " fill="#FFFFFF" transform="translate(366,288)"/>
<path d="M0 0 C1.21365234 0.26167969 2.42730469 0.52335937 3.67773438 0.79296875 C4.92748047 1.07011719 6.17722656 1.34726562 7.46484375 1.6328125 C8.71845703 1.90222656 9.97207031 2.17164063 11.26367188 2.44921875 C27.265136 5.93704453 27.265136 5.93704453 31.77734375 11.3828125 C32.46570313 12.20007813 33.1540625 13.01734375 33.86328125 13.859375 C34.37117187 14.48585938 34.8790625 15.11234375 35.40234375 15.7578125 C33.79803454 20.57074014 29.58526292 21.98443004 25.33984375 24.4453125 C24.50517578 24.95642578 23.67050781 25.46753906 22.81054688 25.99414062 C21.98361328 26.47689453 21.15667969 26.95964844 20.3046875 27.45703125 C19.55695068 27.89877686 18.80921387 28.34052246 18.03881836 28.7956543 C11.58971171 31.149199 4.93010152 29.46644216 -1.546875 28 C-2.39026428 27.8163237 -3.23365356 27.6326474 -4.1026001 27.44340515 C-6.83185239 26.84748496 -9.55845955 26.24030837 -12.28515625 25.6328125 C-15.11458492 25.01103591 -17.94458998 24.3919362 -20.77467346 23.77314758 C-22.66634709 23.35943835 -24.55781703 22.94479664 -26.44908142 22.52922058 C-32.19261977 21.2701554 -37.94281172 20.05514499 -43.70703125 18.89453125 C-44.38760086 18.75702454 -45.06817047 18.61951782 -45.7693634 18.47784424 C-48.89573894 17.8474622 -52.02338562 17.22457092 -55.15307617 16.61083984 C-56.23693604 16.39250488 -57.3207959 16.17416992 -58.4375 15.94921875 C-59.36941162 15.76560791 -60.30132324 15.58199707 -61.26147461 15.39282227 C-63.59765625 14.7578125 -63.59765625 14.7578125 -66.59765625 12.7578125 C-65.87400879 12.5719458 -65.15036133 12.3860791 -64.40478516 12.19458008 C-45.82836325 7.42608192 -45.82836325 7.42608192 -27.33251953 2.35668945 C-25.42291643 1.81654458 -23.51032041 1.28701595 -21.59765625 0.7578125 C-20.9329834 0.56654785 -20.26831055 0.3752832 -19.58349609 0.17822266 C-18.91141113 -0.00562988 -18.23932617 -0.18948242 -17.546875 -0.37890625 C-16.95608154 -0.54479248 -16.36528809 -0.71067871 -15.7565918 -0.8815918 C-10.35074228 -1.78450254 -5.30853605 -1.15353854 0 0 Z " fill="#FFFFFF" transform="translate(546.59765625,261.2421875)"/>
<path d="M0 0 C9.24521419 0.3432922 18.26960509 1.07121401 27.39111328 2.62548828 C36.95595429 4.2231195 46.57261601 5.43575743 56.1875 6.6875 C57.06425385 6.80186401 57.94100769 6.91622803 58.84432983 7.03405762 C63.89579863 7.69264925 68.94770172 8.34780337 74 9 C72.48735131 13.03693874 70.85465903 15.54691861 67.875 18.6875 C64.07438833 22.7916749 60.52496746 27.00361989 57.0625 31.39453125 C53.43437785 35.97778404 49.70988643 40.48286976 46 45 C42.56011491 43.51756178 40.32743123 41.57544821 37.69042969 38.93334961 C36.84986023 38.09585678 36.00929077 37.25836395 35.14324951 36.39549255 C34.24519592 35.49025345 33.34714233 34.58501434 32.421875 33.65234375 C31.4953009 32.72531143 30.56872681 31.79827911 29.61407471 30.84315491 C27.65756833 28.88508741 25.70445952 26.92371429 23.75390625 24.9597168 C21.2481437 22.43690616 18.73578948 19.92078755 16.2211113 17.40686703 C13.82689608 15.01231548 11.43694411 12.61353397 9.046875 10.21484375 C7.68764923 8.85394875 7.68764923 8.85394875 6.30096436 7.46556091 C5.47300354 6.63122025 4.64504272 5.79687958 3.79199219 4.93725586 C3.05793152 4.19938339 2.32387085 3.46151093 1.56756592 2.70127869 C0 1 0 1 0 0 Z " fill="#FFFFFF" transform="translate(188,259)"/>
<path d="M0 0 C-0.22845871 3.34810174 -0.60082793 6.66813514 -1 10 C-1.18949219 11.86011719 -1.18949219 11.86011719 -1.3828125 13.7578125 C-2.7608871 23.52079173 -2.7608871 23.52079173 -5.75390625 27.09375 C-8.4009401 28.97199315 -11.14112938 30.45983378 -14 32 C-16.28541465 33.41323664 -18.54644457 34.86160753 -20.80859375 36.31176758 C-23.95188605 38.32441764 -27.11222707 40.30632825 -30.30029297 42.24731445 C-33.11587592 44.0210805 -33.11587592 44.0210805 -36.04736328 46.36791992 C-45.92218939 53.84802767 -54.28171025 54.1234198 -66.375 53.5625 C-68.0936432 53.51722985 -69.81240317 53.4761876 -71.53125 53.43945312 C-75.69045171 53.34153625 -79.84388997 53.18699618 -84 53 C-81.97218601 50.85529351 -79.96360067 49.21006091 -77.46484375 47.64453125 C-76.75110596 47.19513184 -76.03736816 46.74573242 -75.30200195 46.28271484 C-74.52171631 45.79754395 -73.74143066 45.31237305 -72.9375 44.8125 C-72.11403076 44.2963916 -71.29056152 43.7802832 -70.44213867 43.24853516 C-61.03109791 37.36479439 -51.56684177 31.56648352 -42.109375 25.7578125 C-32.97885716 20.14698907 -23.88950873 14.47300674 -14.84375 8.7265625 C-13.9664624 8.17000977 -13.0891748 7.61345703 -12.18530273 7.04003906 C-10.46471766 5.94775663 -8.74543217 4.85342381 -7.02758789 3.75683594 C-6.25664795 3.26731445 -5.48570801 2.77779297 -4.69140625 2.2734375 C-4.00248291 1.83435059 -3.31355957 1.39526367 -2.60375977 0.94287109 C-1 0 -1 0 0 0 Z " fill="#FFFFFF" transform="translate(343,426)"/>
<path d="M0 0 C-0.54617673 11.07184376 -2.60113615 21.86361057 -4.5625 32.75 C-4.89568243 34.6223069 -5.22836863 36.49470218 -5.56054688 38.3671875 C-6.36798267 42.91249706 -7.18211693 47.45655921 -8 52 C-12.2028497 50.51583664 -15.72975252 48.35502736 -19.39453125 45.8671875 C-19.98674973 45.47048859 -20.5789682 45.07378967 -21.18913269 44.66506958 C-23.06654082 43.40604397 -24.93954899 42.14064406 -26.8125 40.875 C-28.09020888 40.0165014 -29.36820083 39.15842394 -30.64648438 38.30078125 C-33.76762002 36.20538052 -36.88482771 34.10425497 -40 32 C-36.46284552 28.43121062 -32.8443003 25.04612788 -29 21.8125 C-28.15949097 21.10347534 -28.15949097 21.10347534 -27.30200195 20.38012695 C-21.34671408 15.39455555 -15.19740547 10.67867369 -9 6 C-8.15566406 5.35417969 -7.31132812 4.70835937 -6.44140625 4.04296875 C-1.12968384 0 -1.12968384 0 0 0 Z " fill="#FFFFFF" transform="translate(377,218)"/>
<path d="M0 0 C3.34125 -0.061875 6.6825 -0.12375 10.125 -0.1875 C11.68758545 -0.22846802 11.68758545 -0.22846802 13.28173828 -0.27026367 C18.61482042 -0.31796291 22.42153182 -0.05954509 27 3 C29.46148203 5.6508268 30.89470421 7.54383628 31.16015625 11.21484375 C30.81923805 16.2122056 29.80016339 19.51651689 26 23 C22.5120081 24.67672885 19.77213558 25.24260289 15.91796875 25.1953125 C14.65762817 25.18781982 14.65762817 25.18781982 13.37182617 25.18017578 C12.32099854 25.16196777 11.2701709 25.14375977 10.1875 25.125 C5.1446875 25.063125 5.1446875 25.063125 0 25 C0 16.75 0 8.5 0 0 Z " fill="#FFFFFF" transform="translate(568,554)"/>
<path d="M0 0 C3.34125 -0.0825 6.6825 -0.165 10.125 -0.25 C11.16672363 -0.28641602 12.20844727 -0.32283203 13.28173828 -0.36035156 C20.45476835 -0.4458926 23.6306505 0.8552738 28.875 5.75 C30.56818595 9.13637189 30.50827279 12.33620029 30 16 C28.74144194 19.70575427 27.80533914 21.45278238 24.5625 23.65625 C19.6716802 25.50103291 15.29679464 25.32309462 10.125 25.1875 C6.78375 25.125625 3.4425 25.06375 0 25 C0 16.75 0 8.5 0 0 Z " fill="#FFFFFF" transform="translate(648,554)"/>
<path d="M0 0 C0.66 0 1.32 0 2 0 C3.72787003 2.0051825 5.34023859 4.01900378 6.9375 6.125 C7.93736307 7.42067859 8.93736687 8.7162486 9.9375 10.01171875 C10.44796875 10.6773584 10.9584375 11.34299805 11.484375 12.02880859 C13.78063459 15.01527766 16.10804637 17.97689693 18.4375 20.9375 C18.88794678 21.51129395 19.33839355 22.08508789 19.80249023 22.67626953 C23.67751615 27.60687525 27.59571981 32.50228025 31.51928711 37.39428711 C35.33071316 42.15103052 39.10253355 46.93752715 42.85986328 51.73706055 C45.67647943 55.33003231 48.51977095 58.89993182 51.38183594 62.45678711 C58.40776785 71.18865573 65.22802972 80.07016481 72 89 C69.28969756 91.88166349 66.64134397 94.00987934 63.24609375 96.03125 C62.31740479 96.58925293 61.38871582 97.14725586 60.43188477 97.72216797 C58.94966431 98.60219482 58.94966431 98.60219482 57.4375 99.5 C55.37158135 100.74083243 53.30649107 101.983045 51.2421875 103.2265625 C49.68322754 104.16483887 49.68322754 104.16483887 48.09277344 105.12207031 C43.38028877 107.98348743 38.71761212 110.921424 34.0625 113.875 C33.24644287 114.39255859 32.43038574 114.91011719 31.58959961 115.44335938 C29.72537914 116.62730076 27.86251622 117.81337939 26 119 C25.67 118.01 25.34 117.02 25 116 C25.763125 115.731875 26.52625 115.46375 27.3125 115.1875 C29.99106782 114.20735832 29.99106782 114.20735832 31.5 112.4375 C33.50706089 110.51406665 35.29667526 110.36531415 38 110 C38 109.01 38 108.02 38 107 C40.97 106.505 40.97 106.505 44 106 C44 105.34 44 104.68 44 104 C44.99 104 45.98 104 47 104 C47 103.34 47 102.68 47 102 C48.65 101.67 50.3 101.34 52 101 C52.495 99.515 52.495 99.515 53 98 C54.32796291 97.64587656 55.66216607 97.31478446 57 97 C57.515625 96.484375 58.03125 95.96875 58.5625 95.4375 C59.036875 94.963125 59.51125 94.48875 60 94 C60.99 94 61.98 94 63 94 C63 93.34 63 92.68 63 92 C64.65 91.34 66.3 90.68 68 90 C67.41626854 86.11145044 65.58538518 84.01103892 63.0625 81.0625 C59.60302135 76.94511733 56.25400779 72.78122095 53 68.5 C49.14097627 63.44007558 45.16089775 58.49636239 41.1171875 53.58203125 C39.03909098 51.04767369 36.97589149 48.50390856 34.9375 45.9375 C34.36902344 45.22464844 33.80054688 44.51179688 33.21484375 43.77734375 C32 42 32 42 32 40 C31.34 40 30.68 40 30 40 C28.78995325 38.48668339 27.65876169 36.91017036 26.5625 35.3125 C23.35904282 30.78448038 19.99186013 26.51617723 16.375 22.3125 C12.85206628 18.2164287 9.44722037 14.09028823 6.31640625 9.68359375 C4.70014147 7.6165014 2.88141386 5.82549073 1 4 C0.96261719 4.83660156 0.92523438 5.67320312 0.88671875 6.53515625 C0.45312094 14.2123881 -0.52338691 21.42266845 -2.18359375 28.94140625 C-3.3797033 34.58252746 -4.14405672 40.29974917 -5 46 C-5.39292577 48.54582123 -5.78751097 51.09138678 -6.18359375 53.63671875 C-6.28489594 54.28809311 -6.38619812 54.93946747 -6.49057007 55.61058044 C-12.10272233 91.67756801 -12.10272233 91.67756801 -13.9921875 100.84375 C-15.01754903 105.91415551 -15.75023209 110.99948934 -16.4375 116.125 C-19.83872388 140.67744777 -19.83872388 140.67744777 -22 145 C-20.02463255 144.65213292 -20.02463255 144.65213292 -18 144 C-17.505 143.01 -17.505 143.01 -17 142 C-15.33333333 141.33333333 -13.66666667 140.66666667 -12 140 C-11.505 139.01 -11.505 139.01 -11 138 C-7.9375 137.375 -7.9375 137.375 -5 137 C-5 136.34 -5 135.68 -5 135 C-4.01 135 -3.02 135 -2 135 C-2 134.34 -2 133.68 -2 133 C-1.01 133 -0.02 133 1 133 C1 132.34 1 131.68 1 131 C1.99 131 2.98 131 4 131 C4.33 130.01 4.66 129.02 5 128 C6.32 128 7.64 128 9 128 C9 127.34 9 126.68 9 126 C9.886875 125.566875 10.77375 125.13375 11.6875 124.6875 C14.93166049 123.09256111 14.93166049 123.09256111 17.625 121.375 C19.80836414 120.11094707 21.53840795 119.45585038 24 119 C20.3539087 123.19793215 15.8735351 125.62039085 11.125 128.375 C2.27131517 133.58343748 -6.40513953 139.0285635 -15.01513672 144.63037109 C-15.89959473 145.20094238 -16.78405273 145.77151367 -17.6953125 146.359375 C-18.47922363 146.86952148 -19.26313477 147.37966797 -20.07080078 147.90527344 C-22 149 -22 149 -24 149 C-22.63818003 136.1398942 -20.67101482 123.43342387 -18.5 110.6875 C-18.15221269 108.62637907 -17.80489513 106.56517884 -17.45800781 104.50390625 C-16.70990702 100.06011685 -15.95993614 95.61664829 -15.20898438 91.17333984 C-13.9259464 83.57169464 -12.65686583 75.96773847 -11.390625 68.36328125 C-11.28078278 67.70364569 -11.17094055 67.04401012 -11.05776978 66.3643856 C-10.50507194 63.04492125 -9.95256249 59.72542557 -9.40014648 56.40591431 C-8.36674837 50.1975219 -7.33176408 43.98939402 -6.296875 37.78125 C-5.9107991 35.46484511 -5.52473128 33.14843888 -5.13867188 30.83203125 C-3.42578125 20.5546875 -1.71289062 10.27734375 0 0 Z " fill="#FFFFFF" transform="translate(387,218)"/>
<path d="M0 0 C3.45064709 1.32022419 6.68240276 2.82206449 9.9296875 4.58203125 C10.87779297 5.09507813 11.82589844 5.608125 12.80273438 6.13671875 C13.81658203 6.68972656 14.83042969 7.24273437 15.875 7.8125 C16.93783203 8.39 18.00066406 8.9675 19.09570312 9.5625 C27.22975279 13.9975052 35.29904352 18.54055867 43.35107422 23.12231445 C50.18792202 27.00289204 57.07805909 30.77362028 64 34.5 C72.25395506 38.95552514 80.49298615 43.43590094 88.6875 48 C89.64978516 48.52787109 90.61207031 49.05574219 91.60351562 49.59960938 C92.50134766 50.10298828 93.39917969 50.60636719 94.32421875 51.125 C95.10885498 51.56070313 95.89349121 51.99640625 96.7019043 52.4453125 C102.34921111 56.26577885 105.11434421 60.58547188 107.79296875 66.6484375 C108.30911743 67.77885719 108.30911743 67.77885719 108.83569336 68.93211365 C109.9635882 71.4084079 111.07565439 73.89146351 112.1875 76.375 C112.97002398 78.10294992 113.75365099 79.83040071 114.53833008 81.55737305 C115.76294135 84.25324612 116.98654547 86.94953674 118.20585632 89.64781189 C121.16122767 96.1830618 124.17504456 102.68906646 127.21875 109.18359375 C128.05978141 110.98317506 128.90068513 112.78281605 129.74145508 114.58251953 C130.96056644 117.1918371 132.18166 119.80011193 133.40975952 122.4052124 C134.54472499 124.81501759 135.6698992 127.22916446 136.79296875 129.64453125 C137.13473145 130.36354111 137.47649414 131.08255096 137.82861328 131.823349 C138.6130955 133.52216966 139.31548042 135.25849578 140 137 C139.67 137.66 139.34 138.32 139 139 C138.21165771 138.47269287 137.42331543 137.94538574 136.61108398 137.40209961 C133.57132277 135.36942716 130.53059919 133.33819878 127.48944092 131.30761719 C126.12395792 130.39586008 124.75860099 129.48391413 123.39337158 128.57177734 C116.29711156 123.83208518 109.19519114 119.1036087 102.02734375 114.47265625 C100.98199463 113.79662354 99.93664551 113.12059082 98.85961914 112.42407227 C96.91245018 111.1688053 94.96253476 109.91778545 93.00952148 108.67163086 C92.13755127 108.10968018 91.26558105 107.54772949 90.3671875 106.96875 C89.61550293 106.48857422 88.86381836 106.00839844 88.08935547 105.51367188 C85.81600216 103.86669939 83.93284851 102.03066584 82 100 C86.37398763 101.26062526 89.47453942 102.84114187 93.0625 105.625 C99.13310142 110.18001029 105.51361514 114.07173762 112 118 C118.47328727 122.02089062 124.80041694 126.19037753 131.00390625 130.6171875 C132.94436105 132.03123198 132.94436105 132.03123198 135 133 C128.83619886 119.22018356 122.55474931 105.4993811 116.1875 91.8125 C114.93332617 89.11521377 113.6795233 86.41775711 112.42658997 83.71989441 C111.65821084 82.0655008 110.88913547 80.41143028 110.1191864 78.75776672 C109.0738583 76.50770604 108.03506376 74.25479958 107 72 C106.6248526 71.18614838 106.2497052 70.37229675 105.8631897 69.53378296 C105.50010712 68.73461456 105.13702454 67.93544617 104.76293945 67.11206055 C104.43493851 66.39334274 104.10693756 65.67462494 103.76899719 64.93412781 C103 63 103 63 102.5625 60.0625 C102.376875 59.381875 102.19125 58.70125 102 58 C100.34060973 57.31542265 98.67166466 56.65403325 97 56 C94.39058516 54.57914928 91.8569141 53.03357124 89.3125 51.5 C80.95102033 46.52001451 72.48117955 41.75981827 63.95214844 37.07373047 C62.27031709 36.14868116 60.59185999 35.21750194 58.9140625 34.28515625 C51.71627515 30.30632072 44.37380171 26.63845982 37 23 C37 22.34 37 21.68 37 21 C36.030625 20.773125 35.06125 20.54625 34.0625 20.3125 C30.07973284 19.18378056 26.72491981 17.30761626 23.15625 15.2421875 C20.49442251 13.7087434 17.76094649 12.3450765 15 11 C15 10.34 15 9.68 15 9 C11.68885166 7.87119943 8.41021743 6.78697325 5 6 C5.56104984 11.16165851 6.77623821 15.82726031 8.37890625 20.765625 C9 23 9 23 9 26 C9.66 26 10.32 26 11 26 C12.34844868 31.6556294 13.36934845 37.2190275 14 43 C12.27554443 40.41331664 11.40777633 38.59799599 10.44921875 35.7109375 C10.16506104 34.85927002 9.88090332 34.00760254 9.58813477 33.13012695 C9.29092529 32.22093506 8.99371582 31.31174316 8.6875 30.375 C8.38062256 29.44453857 8.07374512 28.51407715 7.75756836 27.55541992 C5.77564511 21.49917048 3.87076979 15.42283653 2.0625 9.3125 C1.85133545 8.60077637 1.6401709 7.88905273 1.42260742 7.15576172 C0 2.25667629 0 2.25667629 0 0 Z " fill="#FFFFFF" transform="translate(179,99)"/>
<path d="M0 0 C2.27687802 2.8369941 3.83468917 5.57255422 5.26171875 8.9140625 C5.65810547 9.83960938 6.05449219 10.76515625 6.46289062 11.71875 C7.06907227 13.15734375 7.06907227 13.15734375 7.6875 14.625 C8.10322266 15.59179688 8.51894531 16.55859375 8.94726562 17.5546875 C12 24.73287408 12 24.73287408 12 27 C4.41 27 -3.18 27 -11 27 C-7.6201873 16.86056191 -7.6201873 16.86056191 -6.2109375 13.4375 C-5.90929687 12.70402344 -5.60765625 11.97054687 -5.296875 11.21484375 C-4.84054688 10.11849609 -4.84054688 10.11849609 -4.375 9 C-4.06304687 8.23816406 -3.75109375 7.47632813 -3.4296875 6.69140625 C-1.12963051 1.12963051 -1.12963051 1.12963051 0 0 Z " fill="#FFFFFF" transform="translate(194,558)"/>
<path d="M0 0 C16.73245614 2.10913313 16.73245614 2.10913313 21.8359375 8.0859375 C23.18607271 10.30595848 24.10456882 12.56476192 25 15 C21.78171105 16.99388729 18.56010993 18.98151315 15.328125 20.953125 C13.48936302 22.08400678 11.65752973 23.22748025 9.859375 24.421875 C3.67440461 28.41031385 -2.74323372 27.25123331 -9.56903076 25.78108215 C-10.3544928 25.60324692 -11.13995483 25.42541168 -11.94921875 25.2421875 C-12.79260803 25.0585112 -13.63599731 24.8748349 -14.50494385 24.68559265 C-17.23419614 24.08967246 -19.9608033 23.48249587 -22.6875 22.875 C-25.51692867 22.25322341 -28.34693373 21.6341237 -31.17701721 21.01533508 C-33.06869084 20.60162585 -34.96016078 20.18698414 -36.85142517 19.77140808 C-42.59496352 18.5123429 -48.34515547 17.29733249 -54.109375 16.13671875 C-55.13022942 15.93045868 -55.13022942 15.93045868 -56.17170715 15.72003174 C-59.29808269 15.0896497 -62.42572937 14.46675842 -65.55541992 13.85302734 C-67.18120972 13.5255249 -67.18120972 13.5255249 -68.83984375 13.19140625 C-69.77175537 13.00779541 -70.70366699 12.82418457 -71.66381836 12.63500977 C-74 12 -74 12 -77 10 C-74.36 9.67 -71.72 9.34 -69 9 C-69 9.66 -69 10.32 -69 11 C-67.989375 11.103125 -66.97875 11.20625 -65.9375 11.3125 C-58.05173906 12.29822012 -50.06922337 13.81630714 -42.44140625 16.03515625 C-39.11481163 16.96781104 -35.91985497 17.53516534 -32.5 18 C-26.63516946 18.85892255 -21.3790272 20.22224111 -15.75 22.0625 C-10.86216016 23.28445996 -6.01620044 23.6553063 -1 24 C-1 24.66 -1 25.32 -1 26 C0.44096586 25.57405412 1.87768712 25.13373367 3.3125 24.6875 C4.51326172 24.32205078 4.51326172 24.32205078 5.73828125 23.94921875 C8.13680372 22.94258497 9.25086235 21.88142537 11 20 C16.33333333 17 16.33333333 17 20 17 C20.86850174 14.75124253 20.86850174 14.75124253 21 12 C18.38442064 7.42273611 14.90810032 5.50578612 10 4 C7.61313592 3.45244798 5.23129781 2.95641741 2.8203125 2.52734375 C2.21960938 2.35332031 1.61890625 2.17929687 1 2 C0.505 1.01 0.505 1.01 0 0 Z " fill="#FFFFFF" transform="translate(557,264)"/>
<path d="M0 0 C9.24521419 0.3432922 18.26960509 1.07121401 27.39111328 2.62548828 C36.95595429 4.2231195 46.57261601 5.43575743 56.1875 6.6875 C57.06425385 6.80186401 57.94100769 6.91622803 58.84432983 7.03405762 C63.89579863 7.69264925 68.94770172 8.34780337 74 9 C72.46921029 13.0981403 70.77596202 15.62700597 67.75 18.8125 C63.85006915 23.01484875 60.324412 27.33278629 57 32 C56 29 56 29 56.9375 26.8125 C57.4634375 25.9153125 57.4634375 25.9153125 58 25 C58.66 25 59.32 25 60 25 C60.495 23.515 60.495 23.515 61 22 C61.66 21.67 62.32 21.34 63 21 C63.495 19.515 63.495 19.515 64 18 C65.66666667 16.33333333 67.33333333 14.66666667 69 13 C69.33 12.01 69.66 11.02 70 10 C68.92363281 9.95101563 67.84726563 9.90203125 66.73828125 9.8515625 C65.26300309 9.77638909 63.78774363 9.700848 62.3125 9.625 C61.61060547 9.5940625 60.90871094 9.563125 60.18554688 9.53125 C54.6192669 9.23438173 49.18841263 8.47111603 43.68676758 7.58837891 C39.55996689 6.9297742 35.42784528 6.31630556 31.29296875 5.7109375 C30.54900345 5.60165924 29.80503815 5.49238098 29.03852844 5.37979126 C26.7549136 5.04444158 24.47120889 4.70970858 22.1875 4.375 C20.60871796 4.14327004 19.02994188 3.91149945 17.45117188 3.6796875 C13.63418295 3.11932469 9.8171145 2.55950669 6 2 C7.10434066 3.27181376 8.21008351 4.54241003 9.31640625 5.8125 C10.23981812 6.87404297 10.23981812 6.87404297 11.18188477 7.95703125 C13.36505104 10.41019835 15.64310499 12.71452605 18 15 C17.67 15.99 17.34 16.98 17 18 C14.16266225 15.19151503 11.33081251 12.37756077 8.5 9.5625 C7.68917969 8.76005859 6.87835938 7.95761719 6.04296875 7.13085938 C5.27597656 6.36708984 4.50898438 5.60332031 3.71875 4.81640625 C3.00654297 4.10943604 2.29433594 3.40246582 1.56054688 2.67407227 C0 1 0 1 0 0 Z " fill="#FFFFFF" transform="translate(188,259)"/>
<path d="M0 0 C4.08835917 0.60297715 7.88189825 1.49515082 11.80859375 2.77734375 C13.42411133 3.30038086 13.42411133 3.30038086 15.07226562 3.83398438 C16.18279297 4.19814453 17.29332031 4.56230469 18.4375 4.9375 C28.17253806 8.12089402 28.17253806 8.12089402 38 11 C38 11.33 38 11.66 38 12 C32.11869532 12.30420541 29.27306 11.737935 24 9 C20.03192769 7.86091725 16.0215079 6.92976366 12 6 C10.66589329 5.66977557 9.33220089 5.33783085 8 5 C9.49022858 9.50436323 12.01508226 12.89788093 14.9375 16.5625 C15.82173427 17.68870813 16.70585168 18.81500801 17.58984375 19.94140625 C18.99420478 21.72360185 20.40155972 23.5034609 21.81640625 25.27734375 C23 27 23 27 23 29 C23.99 29.33 24.98 29.66 26 30 C27.9375 32.36328125 27.9375 32.36328125 30 35.3125 C31.0209375 36.76076172 31.0209375 36.76076172 32.0625 38.23828125 C32.701875 39.14964844 33.34125 40.06101563 34 41 C34.99395503 42.33784572 35.99144798 43.67312375 37 45 C36.505 45.99 36.505 45.99 36 47 C30.244756 40.22347053 24.72165693 33.36963988 19.4296875 26.22265625 C16.61774157 22.45881104 13.6879218 18.79086653 10.75 15.125 C10.0067749 14.19723755 10.0067749 14.19723755 9.24853516 13.25073242 C6.92008059 10.35484923 4.56566257 7.49525503 2.140625 4.6796875 C0 2 0 2 0 0 Z " fill="#FFFFFF" transform="translate(158,176)"/>
<path d="M0 0 C3.7954962 1.42851514 7.26898445 3.1637505 10.8125 5.1328125 C11.9574292 5.76687012 13.1023584 6.40092773 14.28198242 7.05419922 C15.52137946 7.74436227 16.76071725 8.43463175 18 9.125 C19.93452897 10.19908001 21.86951158 11.27233994 23.80448914 12.34561157 C25.14479549 13.08919377 26.48489074 13.8331566 27.82478333 14.57748413 C32.63858989 17.25036431 37.4631674 19.9030243 42.29296875 22.546875 C44.28159738 23.63716131 46.27008751 24.72769982 48.25854492 25.81829834 C49.5414717 26.52109898 50.82499844 27.22280557 52.10913086 27.92340088 C53.90129413 28.90152309 55.69094335 29.88424746 57.48046875 30.8671875 C59.01030396 31.70419189 59.01030396 31.70419189 60.57104492 32.55810547 C63 34 63 34 65 36 C57.41668157 35.0520852 50.64748835 30.29707308 44.125 26.5625 C38.17300361 23.18112635 32.17780957 19.95525025 26 17 C26 16.34 26 15.68 26 15 C24.71222656 14.60167969 24.71222656 14.60167969 23.3984375 14.1953125 C19.97089192 12.98976199 16.85826202 11.52755614 13.625 9.875 C12.56539063 9.33617187 11.50578125 8.79734375 10.4140625 8.2421875 C9.61742187 7.83226562 8.82078125 7.42234375 8 7 C8 6.34 8 5.68 8 5 C7.01 5.33 6.02 5.66 5 6 C5.515625 7.093125 6.03125 8.18625 6.5625 9.3125 C8 13 8 13 7 16 C5.82845707 13.71070947 4.66261926 11.41881638 3.5 9.125 C3.16613281 8.47402344 2.83226562 7.82304687 2.48828125 7.15234375 C0 2.2265625 0 2.2265625 0 0 Z " fill="#FFFFFF" transform="translate(296,164)"/>
<path d="M0 0 C1.53527344 0.32871094 1.53527344 0.32871094 3.1015625 0.6640625 C18.37325046 3.91447326 33.68594311 6.95700771 49 10 C49 10.33 49 10.66 49 11 C41.17675228 11.47593902 33.91331994 9.68550987 26.3125 8 C23.72653408 7.43120838 21.13917715 6.8702867 18.55078125 6.3125 C17.41294189 6.06113281 16.27510254 5.80976563 15.1027832 5.55078125 C12.31451245 5.05582973 9.82143395 4.88929093 7 5 C7.495 5.78375 7.99 6.5675 8.5 7.375 C10 10 10 10 10 12 C10.99 12 11.98 12 13 12 C13.556875 13.010625 14.11375 14.02125 14.6875 15.0625 C16.87752727 18.90878446 19.38052885 22.43460872 22 26 C21.67 26.66 21.34 27.32 21 28 C17.80540128 24.07549984 14.61329141 20.14901058 11.42578125 16.21875 C9.40991784 13.73324099 7.38861457 11.25263573 5.35546875 8.78125 C4.64003906 7.9046875 3.92460937 7.028125 3.1875 6.125 C2.56230469 5.36445313 1.93710937 4.60390625 1.29296875 3.8203125 C0 2 0 2 0 0 Z " fill="#FFFFFF" transform="translate(449,278)"/>
<path d="M0 0 C11.88 0 23.76 0 36 0 C36 0.33 36 0.66 36 1 C24.78 1 13.56 1 2 1 C2 11.56 2 22.12 2 33 C-3.94 33 -9.88 33 -16 33 C-15.67 32.34 -15.34 31.68 -15 31 C-10.05 31 -5.1 31 0 31 C0 20.77 0 10.54 0 0 Z " fill="#FFFFFF" transform="translate(90,582)"/>
<path d="M0 0 C3.3133979 1.10446597 3.67066521 1.5958183 5.5 4.375 C7.15784128 6.8723891 8.87308295 8.89451285 11 11 C12.12404256 12.37987791 13.22676004 13.77728603 14.3125 15.1875 C15.22128906 16.36699219 15.22128906 16.36699219 16.1484375 17.5703125 C18.78616512 21.03163439 21.40263289 24.50830135 24 28 C25.83629876 25.24555186 26.46756626 23.70698896 27.21875 20.5859375 C27.42886719 19.74289062 27.63898438 18.89984375 27.85546875 18.03125 C28.28694674 16.25303767 28.71661987 14.47438647 29.14453125 12.6953125 C29.45970703 11.43460937 29.45970703 11.43460937 29.78125 10.1484375 C29.96751953 9.37677246 30.15378906 8.60510742 30.34570312 7.81005859 C31 6 31 6 33 5 C32.33425862 11.48906541 30.99578944 17.67081322 29.4375 24 C29.20353516 24.96550781 28.96957031 25.93101562 28.72851562 26.92578125 C28.15626866 29.28484017 27.58002171 31.64284292 27 34 C19.27455753 26.45199703 12.64810416 17.88368133 5.9375 9.4375 C5.22182861 8.54430054 5.22182861 8.54430054 4.49169922 7.63305664 C2.49225461 5.09602895 1.03013682 3.09041047 0 0 Z " fill="#FFFFFF" transform="translate(475,311)"/>
<path d="M0 0 C0.66 0 1.32 0 2 0 C1.35337802 8.89105223 -0.86564202 17.37681264 -3 26 C-3.25007813 27.01932617 -3.50015625 28.03865234 -3.7578125 29.08886719 C-4.5638554 32.37270943 -5.37460639 35.65534727 -6.1875 38.9375 C-6.44942139 39.998479 -6.71134277 41.05945801 -6.98120117 42.15258789 C-7.22845947 43.14250732 -7.47571777 44.13242676 -7.73046875 45.15234375 C-7.95114014 46.03913818 -8.17181152 46.92593262 -8.39916992 47.83959961 C-9 50 -9 50 -10 52 C-23.02965093 52.5768335 -23.02965093 52.5768335 -27.77734375 48.77734375 C-33 42.21360759 -33 42.21360759 -33 39 C-29.43338183 40.18887272 -29.39816318 40.81469988 -27.625 43.9375 C-25.47381134 47.00513894 -24.36921576 47.8905539 -20.71875 48.97265625 C-17.47425351 49.44875084 -14.2728301 49.80576676 -11 50 C-10.61908203 48.25976562 -10.61908203 48.25976562 -10.23046875 46.484375 C-7.10997213 32.29753185 -7.10997213 32.29753185 -5.375 25.5 C-4.06593464 20.36280297 -2.99662935 15.20553512 -2 10 C-1.62648625 8.12470336 -1.25151892 6.24969558 -0.875 4.375 C-0.70742187 3.53710938 -0.53984375 2.69921875 -0.3671875 1.8359375 C-0.18542969 0.92714844 -0.18542969 0.92714844 0 0 Z " fill="#FFFFFF" transform="translate(242,202)"/>
<path d="M0 0 C-0.54617673 11.07184376 -2.60113615 21.86361057 -4.5625 32.75 C-4.89568243 34.6223069 -5.22836863 36.49470218 -5.56054688 38.3671875 C-6.36798267 42.91249706 -7.18211693 47.45655921 -8 52 C-11.60260955 50.60933499 -14.62407815 49.06406575 -17.8125 46.875 C-18.60269531 46.33617187 -19.39289063 45.79734375 -20.20703125 45.2421875 C-20.79871094 44.83226562 -21.39039063 44.42234375 -22 44 C-21.01 43.505 -21.01 43.505 -20 43 C-18.125 43.99609375 -18.125 43.99609375 -16 45.4375 C-13.23618746 47.46200158 -13.23618746 47.46200158 -10 48 C-6.08378694 26.56302729 -6.08378694 26.56302729 -3 5 C-3.99 4.67 -4.98 4.34 -6 4 C-1.125 0 -1.125 0 0 0 Z " fill="#FFFFFF" transform="translate(377,218)"/>
<path d="M0 0 C4.5929708 3.52127761 5.11941917 7.57747597 6 13 C6.66 13 7.32 13 8 13 C8.83739781 15.1234016 9.66980283 17.2487728 10.5 19.375 C10.9640625 20.55835938 11.428125 21.74171875 11.90625 22.9609375 C13 26 13 26 13 28 C13.66 28 14.32 28 15 28 C15.31453125 28.7734375 15.6290625 29.546875 15.953125 30.34375 C18.86289504 37.43893431 18.86289504 37.43893431 22.25 44.3125 C24.10760658 47.88539653 24.66658615 50.99903375 25 55 C22.75280719 52.75280719 21.88324043 50.84887722 20.56640625 47.9609375 C20.08719727 46.91623291 19.60798828 45.87152832 19.11425781 44.79516602 C18.60217773 43.66651123 18.09009766 42.53785645 17.5625 41.375 C16.48573606 39.01690015 15.40891167 36.65882791 14.33203125 34.30078125 C14.0578537 33.69852219 13.78367615 33.09626312 13.50119019 32.47575378 C11.60916319 28.32150556 9.69187317 24.17968749 7.76171875 20.04296875 C7.25503662 18.95258301 6.74835449 17.86219727 6.22631836 16.73876953 C5.25578379 14.65068375 4.28144543 12.56436097 3.30297852 10.47998047 C2.86783936 9.53912598 2.4327002 8.59827148 1.984375 7.62890625 C1.59991211 6.80463135 1.21544922 5.98035645 0.81933594 5.13110352 C0 3 0 3 0 0 Z " fill="#FFFFFF" transform="translate(304,180)"/>
<path d="M0 0 C0.66 0.33 1.32 0.66 2 1 C-5.31961193 5.68838562 -12.65380388 10.35338164 -20 15 C-20.91620117 15.58040039 -21.83240234 16.16080078 -22.77636719 16.75878906 C-25.26181548 18.32781508 -27.75430157 19.88484447 -30.25 21.4375 C-31.00522949 21.91550049 -31.76045898 22.39350098 -32.53857422 22.88598633 C-34.32178778 23.98677379 -36.15659892 25.00327732 -38 26 C-38.66 25.67 -39.32 25.34 -40 25 C-38.6100869 22.22017379 -36.81341647 22.12536659 -34 21 C-33.67 20.34 -33.34 19.68 -33 19 C-29.9375 18.375 -29.9375 18.375 -27 18 C-27 17.34 -27 16.68 -27 16 C-26.01 16 -25.02 16 -24 16 C-24 15.34 -24 14.68 -24 14 C-23.01 14 -22.02 14 -21 14 C-21 13.34 -21 12.68 -21 12 C-20.01 12 -19.02 12 -18 12 C-17.67 11.01 -17.34 10.02 -17 9 C-15.68 9 -14.36 9 -13 9 C-13 8.34 -13 7.68 -13 7 C-12.113125 6.566875 -11.22625 6.13375 -10.3125 5.6875 C-7.45458607 4.23158158 -4.73460638 2.67114835 -2 1 C-1.34 0.67 -0.68 0.34 0 0 Z " fill="#FFFFFF" transform="translate(409,337)"/>
<path d="M0 0 C6.93 0 13.86 0 21 0 C21 0.66 21 1.32 21 2 C21.62648437 1.98839844 22.25296875 1.97679687 22.8984375 1.96484375 C23.71570313 1.95582031 24.53296875 1.94679688 25.375 1.9375 C26.18710938 1.92589844 26.99921875 1.91429687 27.8359375 1.90234375 C30 2 30 2 32 3 C34.204364 3.22950319 36.41392173 3.41075933 38.625 3.5625 C39.81351563 3.64628906 41.00203125 3.73007812 42.2265625 3.81640625 C43.14179688 3.87699219 44.05703125 3.93757813 45 4 C45 4.66 45 5.32 45 6 C29.67883501 5.26950531 29.67883501 5.26950531 23.625 4 C15.86329461 2.4023525 7.89655011 2.33010881 0 2 C0 1.34 0 0.68 0 0 Z " fill="#FFFFFF" transform="translate(187,258)"/>
<path d="M0 0 C5.61 0.33 11.22 0.66 17 1 C17 1.33 17 1.66 17 2 C13.37 2 9.74 2 6 2 C9.87709493 6.48526668 13.74407368 10.87304115 18 15 C17.67 15.99 17.34 16.98 17 18 C14.16266225 15.19151503 11.33081251 12.37756077 8.5 9.5625 C7.68917969 8.76005859 6.87835938 7.95761719 6.04296875 7.13085938 C5.27597656 6.36708984 4.50898438 5.60332031 3.71875 4.81640625 C3.00654297 4.10943604 2.29433594 3.40246582 1.56054688 2.67407227 C0 1 0 1 0 0 Z " fill="#FFFFFF" transform="translate(188,259)"/>
<path d="M0 0 C1.32 0.33 2.64 0.66 4 1 C4 1.66 4 2.32 4 3 C4.66 3 5.32 3 6 3 C6 3.66 6 4.32 6 5 C8.6264883 6.4070473 11.02531947 7.62816493 14 8 C16.23377831 7.42481768 16.23377831 7.42481768 18 6 C18.144375 5.34 18.28875 4.68 18.4375 4 C18.623125 3.34 18.80875 2.68 19 2 C21.5625 0.75 21.5625 0.75 24 0 C20.73279209 4.38894929 17.45101522 8.75259665 14 13 C10.12060491 11.41379873 7.66638913 8.90079013 4.75 5.9375 C3.85796875 5.03902344 2.9659375 4.14054687 2.046875 3.21484375 C0 1 0 1 0 0 Z " fill="#FFFFFF" transform="translate(220,291)"/>
<path d="M0 0 C2.92869654 2.82410024 5.58427923 5.72152181 8 9 C8 9.66 8 10.32 8 11 C12.95 11 17.9 11 23 11 C23.33 10.01 23.66 9.02 24 8 C25.5 9.375 25.5 9.375 27 11 C27 11.66 27 12.32 27 13 C10.05015974 14.3715655 10.05015974 14.3715655 5.21484375 11.13671875 C2.50301942 7.61883199 0.89778439 4.34926659 0 0 Z " fill="#FFFFFF" transform="translate(591,602)"/>
<path d="M0 0 C2 2 4 4 6 6 C8.85877909 6.23701239 11.69883297 6.42219182 14.5625 6.5625 C15.36880859 6.60568359 16.17511719 6.64886719 17.00585938 6.69335938 C19.00368805 6.79975262 21.0018207 6.90040888 23 7 C23.33 6.34 23.66 5.68 24 5 C24.99 6.32 25.98 7.64 27 9 C23.43834893 9.20391987 19.87819947 9.32782061 16.3125 9.4375 C15.30509766 9.49615234 14.29769531 9.55480469 13.25976562 9.61523438 C5.94112387 9.78431191 5.94112387 9.78431191 3.17724609 7.48095703 C1.3618801 5.01116281 0 3.11531893 0 0 Z " fill="#FFFFFF" transform="translate(412,606)"/>
<path d="M0 0 C1.79206547 0.14084796 3.58364917 0.28783701 5.375 0.4375 C6.87160156 0.55931641 6.87160156 0.55931641 8.3984375 0.68359375 C11 1 11 1 13 2 C12.54591873 4.52166467 12.0868593 7.04225816 11.625 9.5625 C11.49867188 10.26697266 11.37234375 10.97144531 11.2421875 11.69726562 C10.40718633 16.22714697 9.33276044 20.59030133 8 25 C7.67 25 7.34 25 7 25 C7.54779497 17.54710525 8.5709359 10.33586237 10 3 C6.7 2.34 3.4 1.68 0 1 C0 0.67 0 0.34 0 0 Z " fill="#FFFFFF" transform="translate(501,290)"/>
<path d="M0 0 C6.00234073 0.7349805 11.51158708 2.18648039 17.25 4.0625 C22.13783984 5.28445996 26.98379956 5.6553063 32 6 C32 6.66 32 7.32 32 8 C32.66 8.33 33.32 8.66 34 9 C26.72873786 8.31259076 19.65490631 7.08023518 12.5 5.625 C10.85644531 5.31175781 10.85644531 5.31175781 9.1796875 4.9921875 C8.14070312 4.78078125 7.10171875 4.569375 6.03125 4.3515625 C5.08830078 4.16416504 4.14535156 3.97676758 3.17382812 3.78369141 C2.45646484 3.52507324 1.73910156 3.26645508 1 3 C0.67 2.01 0.34 1.02 0 0 Z " fill="#FFFFFF" transform="translate(524,282)"/>
<path d="M0 0 C0.66 0 1.32 0 2 0 C1.56374234 5.99854281 0.48352864 11.71611148 -0.875 17.5625 C-1.03645508 18.27011475 -1.19791016 18.97772949 -1.36425781 19.70678711 C-2.54158036 24.64525515 -4.1400949 29.27584104 -6 34 C-7.43341734 31.13316532 -6.52001943 29.5617776 -5.6875 26.5 C-4.25043301 21.02608118 -3.06376853 15.55621248 -2 10 C-1.62648625 8.12470336 -1.25151892 6.24969558 -0.875 4.375 C-0.70742187 3.53710938 -0.53984375 2.69921875 -0.3671875 1.8359375 C-0.24601563 1.23007813 -0.12484375 0.62421875 0 0 Z " fill="#FFFFFF" transform="translate(242,202)"/>
<path d="M0 0 C1.23621094 0.2784375 2.47242188 0.556875 3.74609375 0.84375 C5.14021484 1.16859375 5.14021484 1.16859375 6.5625 1.5 C6.5625 1.83 6.5625 2.16 6.5625 2.5 C-0.84142157 2.6254902 -0.84142157 2.6254902 -3.8125 2 C-7.97138684 1.20783108 -12.21628379 1.23421972 -16.4375 1.5 C-16.7675 1.83 -17.0975 2.16 -17.4375 2.5 C-18.95678038 2.57179964 -20.47917482 2.58392007 -22 2.5625 C-22.82628906 2.55347656 -23.65257812 2.54445313 -24.50390625 2.53515625 C-25.14199219 2.52355469 -25.78007813 2.51195312 -26.4375 2.5 C-17.67512443 -2.12404742 -9.53700136 -2.17988603 0 0 Z " fill="#FFFFFF" transform="translate(547.4375,261.5)"/>
<path d="M0 0 C4.49797113 1.68673918 8.72886302 3.81673892 13 6 C11.77946141 9.66161578 10.63217696 10.16270474 7.4375 12.1875 C6.61121094 12.71730469 5.78492188 13.24710938 4.93359375 13.79296875 C4.29550781 14.19128906 3.65742188 14.58960938 3 15 C3 14.01 3 13.02 3 12 C3.66 12 4.32 12 5 12 C5 11.34 5 10.68 5 10 C5.99 10 6.98 10 8 10 C6.9802693 6.22699642 6.34127338 5.19793856 2.875 3.1875 C1.92625 2.795625 0.9775 2.40375 0 2 C0 1.34 0 0.68 0 0 Z " fill="#FFFFFF" transform="translate(361,200)"/>
<path d="M0 0 C0 3.38023517 -0.87455622 5.83468937 -2 9 C-1.34 9.20625 -0.68 9.4125 0 9.625 C4.11606263 11.51152871 7.4587703 14.20567979 11 17 C7.71336183 17 7.03946105 16.59963148 4.42578125 14.8125 C3.75869141 14.36132812 3.09160156 13.91015625 2.40429688 13.4453125 C1.71400391 12.96835938 1.02371094 12.49140625 0.3125 12 C-0.38939453 11.52304688 -1.09128906 11.04609375 -1.81445312 10.5546875 C-3.54718149 9.37596072 -5.27415107 8.18877663 -7 7 C-4.66666667 4.66666667 -2.33333333 2.33333333 0 0 Z " fill="#FFFFFF" transform="translate(344,243)"/>
<path d="M0 0 C0.99 0.33 1.98 0.66 3 1 C0.58820862 2.9643996 -1.83025045 4.92041488 -4.25 6.875 C-4.93191406 7.43058594 -5.61382812 7.98617187 -6.31640625 8.55859375 C-6.98027344 9.09355469 -7.64414062 9.62851563 -8.328125 10.1796875 C-8.9355957 10.67194824 -9.54306641 11.16420898 -10.16894531 11.67138672 C-12.03639348 13.02640711 -13.9112699 14.02821631 -16 15 C-16.66 13.35 -17.32 11.7 -18 10 C-17.34 10 -16.68 10 -16 10 C-16 10.66 -16 11.32 -16 12 C-14.35050343 10.88037801 -12.70550162 9.75413155 -11.0625 8.625 C-10.14597656 7.99851563 -9.22945313 7.37203125 -8.28515625 6.7265625 C-5.91612836 5.20228929 -5.91612836 5.20228929 -5 3 C-2.625 1.3125 -2.625 1.3125 0 0 Z " fill="#FFFFFF" transform="translate(347,226)"/>
<path d="M0 0 C0.66 0 1.32 0 2 0 C2.33 1.32 2.66 2.64 3 4 C-3.27 4 -9.54 4 -16 4 C-16 3.34 -16 2.68 -16 2 C-10.72 2 -5.44 2 0 2 C0 1.34 0 0.68 0 0 Z " fill="#FFFFFF" transform="translate(235,611)"/>
<path d="M0 0 C-0.33 0.99 -0.66 1.98 -1 3 C-7.27 3 -13.54 3 -20 3 C-20 2.34 -20 1.68 -20 1 C-17.04170322 0.832662 -14.08336635 0.66609948 -11.125 0.5 C-9.86236328 0.42845703 -9.86236328 0.42845703 -8.57421875 0.35546875 C-7.76855469 0.31035156 -6.96289062 0.26523437 -6.1328125 0.21875 C-5.38918457 0.17685547 -4.64555664 0.13496094 -3.87939453 0.09179688 C-2.58744125 0.0286929 -1.29349349 0 0 0 Z " fill="#FFFFFF" transform="translate(280,612)"/>
<path d="M0 0 C5.28 0.99 10.56 1.98 16 3 C16 3.33 16 3.66 16 4 C11.545 4.495 11.545 4.495 7 5 C6.67 5.99 6.34 6.98 6 8 C1.125 3.375 1.125 3.375 0 0 Z " fill="#FFFFFF" transform="translate(449,278)"/>
<path d="M0 0 C0.93585938 0.01804687 1.87171875 0.03609375 2.8359375 0.0546875 C5.14167015 0.10174327 7.44530945 0.16746287 9.75 0.25 C8.43 1.57 7.11 2.89 5.75 4.25 C5.75 3.26 5.75 2.27 5.75 1.25 C-4.67533282 0.92040046 -4.67533282 0.92040046 -13.6875 5.3125 C-14.533125 6.281875 -15.37875 7.25125 -16.25 8.25 C-12.69232153 -0.05124977 -8.34105533 -0.30373591 0 0 Z " fill="#FFFFFF" transform="translate(426.25,539.75)"/>
<path d="M0 0 C1.10408203 0.13921875 1.10408203 0.13921875 2.23046875 0.28125 C-1.10286458 3.61458333 -4.43619792 6.94791667 -7.76953125 10.28125 C-8.75953125 9.95125 -9.74953125 9.62125 -10.76953125 9.28125 C-9.55843211 7.76662478 -8.32489057 6.26992438 -7.08203125 4.78125 C-6.39753906 3.9459375 -5.71304687 3.110625 -5.0078125 2.25 C-2.76953125 0.28125 -2.76953125 0.28125 0 0 Z " fill="#FFFFFF" transform="translate(276.76953125,269.71875)"/>
<path d="M0 0 C0.33 0 0.66 0 1 0 C1.02696365 1.79158489 1.04637917 3.58328473 1.0625 5.375 C1.07410156 6.37273437 1.08570313 7.37046875 1.09765625 8.3984375 C1 11 1 11 0 13 C1.65 13 3.3 13 5 13 C0.25 17 0.25 17 -2 17 C-1.34 11.39 -0.68 5.78 0 0 Z " fill="#FFFFFF" transform="translate(365,350)"/>
<path d="M0 0 C0 0.66 0 1.32 0 2 C2.64 2.33 5.28 2.66 8 3 C8 3.66 8 4.32 8 5 C2.49191603 4.40984815 -2.64878069 3.43336231 -8 2 C-4.77208445 -0.1519437 -3.71599191 -0.20086443 0 0 Z " fill="#FFFFFF" transform="translate(488,273)"/>
<path d="M0 0 C0.33 0 0.66 0 1 0 C1.19412181 1.47831221 1.38012131 2.95769316 1.5625 4.4375 C1.66691406 5.26121094 1.77132813 6.08492187 1.87890625 6.93359375 C1.91886719 7.61550781 1.95882813 8.29742187 2 9 C1.67 9.33 1.34 9.66 1 10 C0.46670351 12.54100092 0.03581657 15.09334021 -0.40234375 17.65234375 C-1 20 -1 20 -3 22 C-2.68905914 19.45813394 -2.37629464 16.91651402 -2.0625 14.375 C-1.97548828 13.66214844 -1.88847656 12.94929687 -1.79882812 12.21484375 C-1.29217395 8.12408039 -0.7110957 4.06157365 0 0 Z " fill="#FFFFFF" transform="translate(374,236)"/>
<path d="M0 0 C0.66 0 1.32 0 2 0 C0.0827282 7.50931455 -2.24049015 14.75803759 -5 22 C-6.35170606 18.32370389 -5.61707459 16.25891073 -4.1875 12.6875 C-2.55981773 8.48593953 -1.16035499 4.35133123 0 0 Z " fill="#FFFFFF" transform="translate(292,569)"/>
<path d="M0 0 C0.66 0.66 1.32 1.32 2 2 C1.34 2.5775 0.68 3.155 0 3.75 C-2.44290923 5.99653977 -2.44290923 5.99653977 -2 10 C-3.32 8.68 -4.64 7.36 -6 6 C-4.95125002 3.37812506 -4.35068687 2.20628639 -1.875 0.75 C-1.25625 0.5025 -0.6375 0.255 0 0 Z " fill="#FFFFFF" transform="translate(321,315)"/>
<path d="M0 0 C-0.52537724 5.0302076 -1.10594786 10.01885239 -2 15 C-2.33 15 -2.66 15 -3 15 C-3 11.37 -3 7.74 -3 4 C-4.32 3.67 -5.64 3.34 -7 3 C-2.25 0 -2.25 0 0 0 Z " fill="#FFFFFF" transform="translate(366,288)"/>
<path d="M0 0 C1.18851563 0.19464844 2.37703125 0.38929688 3.6015625 0.58984375 C4.97441406 0.82380859 4.97441406 0.82380859 6.375 1.0625 C6.375 1.7225 6.375 2.3825 6.375 3.0625 C1.425 2.7325 -3.525 2.4025 -8.625 2.0625 C-8.625 1.4025 -8.625 0.7425 -8.625 0.0625 C-5.61666904 -1.44166548 -3.27538422 -0.54589737 0 0 Z " fill="#FFFFFF" transform="translate(253.625,303.9375)"/>
<path d="M0 0 C3.17462943 2.40242227 5.85751741 4.61713276 8 8 C8 8.66 8 9.32 8 10 C8.99 10.33 9.98 10.66 11 11 C11.99 12.485 11.99 12.485 13 14 C12.67 14.99 12.34 15.98 12 17 C10.18232326 14.7331445 8.37076857 12.46184027 6.5625 10.1875 C5.7880957 9.22360352 5.7880957 9.22360352 4.99804688 8.24023438 C4.50498047 7.61826172 4.01191406 6.99628906 3.50390625 6.35546875 C3.04830322 5.78465576 2.5927002 5.21384277 2.12329102 4.62573242 C1 3 1 3 0 0 Z " fill="#FFFFFF" transform="translate(336,344)"/>
<path d="M0 0 C0.33 0.99 0.66 1.98 1 3 C-0.74294474 5.3681635 -2.48379005 7.50699905 -4.4375 9.6875 C-4.96666016 10.29400391 -5.49582031 10.90050781 -6.04101562 11.52539062 C-7.35161048 13.02490005 -8.67466418 14.51350334 -10 16 C-10.66 15.67 -11.32 15.34 -12 15 C-8.04 10.05 -4.08 5.1 0 0 Z " fill="#FFFFFF" transform="translate(251,282)"/>
<path d="M0 0 C0 3 0 3 -1 6 C-5.455 6.495 -5.455 6.495 -10 7 C-6.77085357 3.77085357 -3.97169202 2.17318997 0 0 Z " fill="#FFFFFF" transform="translate(212,472)"/>
<path d="M0 0 C0.66 1.32 1.32 2.64 2 4 C2.33 3.34 2.66 2.68 3 2 C3.66 2 4.32 2 5 2 C3.44499019 5.81684226 0.96404505 8.19195732 -2 11 C-1.85892253 9.54119891 -1.71197585 8.08296449 -1.5625 6.625 C-1.48128906 5.81289063 -1.40007812 5.00078125 -1.31640625 4.1640625 C-1 2 -1 2 0 0 Z " fill="#FFFFFF" transform="translate(507,367)"/>
<path d="M0 0 C-0.33 3.63 -0.66 7.26 -1 11 C-1.66 10.67 -2.32 10.34 -3 10 C-3.34153937 8.33499557 -3.67449498 6.66821323 -4 5 C-4.66 4.34 -5.32 3.68 -6 3 C-1.125 0 -1.125 0 0 0 Z " fill="#FFFFFF" transform="translate(349,388)"/>
<path d="M0 0 C-2.07437458 1.36992656 -4.15761462 2.72059546 -6.25 4.0625 C-7.12978516 4.64741211 -7.12978516 4.64741211 -8.02734375 5.24414062 C-12.45794859 8.05682797 -12.45794859 8.05682797 -15.421875 7.74609375 C-15.94265625 7.49988281 -16.4634375 7.25367188 -17 7 C-15.906875 6.566875 -14.81375 6.13375 -13.6875 5.6875 C-10.83106962 4.47394641 -9.1477124 3.24533569 -7 1 C-2.44444444 -1.22222222 -2.44444444 -1.22222222 0 0 Z " fill="#FFFFFF" transform="translate(575,283)"/>
<path d="M0 0 C4.66132863 3.57729872 7.73911534 7.10867301 11 12 C10.01 12 9.02 12 8 12 C5.95703125 9.8828125 5.95703125 9.8828125 3.8125 7.125 C3.09707031 6.22007812 2.38164062 5.31515625 1.64453125 4.3828125 C0 2 0 2 0 0 Z " fill="#FFFFFF" transform="translate(320,325)"/>
<path d="M0 0 C3.45925163 1.2491742 6.14693203 2.67527795 9 5 C8.21625 5.309375 7.4325 5.61875 6.625 5.9375 C4.07669872 6.92875038 4.07669872 6.92875038 2 8 C1.34 5.36 0.68 2.72 0 0 Z " fill="#FFFFFF" transform="translate(179,99)"/>
<path d="M0 0 C3.3133979 1.10446597 3.67066521 1.5958183 5.5 4.375 C7.14904545 6.85913898 8.8328946 8.94628965 11 11 C10.01 11.33 9.02 11.66 8 12 C6.66081194 10.37982158 5.3288031 8.75370657 4 7.125 C3.2575 6.22007812 2.515 5.31515625 1.75 4.3828125 C0 2 0 2 0 0 Z " fill="#FFFFFF" transform="translate(475,311)"/>
<path d="M0 0 C5.61 0.33 11.22 0.66 17 1 C17 1.33 17 1.66 17 2 C16.14535156 2.04898437 15.29070312 2.09796875 14.41015625 2.1484375 C13.30542969 2.22320312 12.20070312 2.29796875 11.0625 2.375 C9.96035156 2.44460938 8.85820312 2.51421875 7.72265625 2.5859375 C6.37494141 2.79089844 6.37494141 2.79089844 5 3 C4.67 3.66 4.34 4.32 4 5 C2.68 3.35 1.36 1.7 0 0 Z " fill="#FFFFFF" transform="translate(188,259)"/>
<path d="M0 0 C3.93677426 1.31225809 4.8271782 3.1961394 7.1875 6.5625 C7.90292969 7.57441406 8.61835938 8.58632812 9.35546875 9.62890625 C9.89816406 10.41136719 10.44085938 11.19382813 11 12 C10.67 12.66 10.34 13.32 10 14 C8.32731078 12.04653795 6.66178419 10.08770186 5 8.125 C4.28457031 7.29162109 4.28457031 7.29162109 3.5546875 6.44140625 C0 2.2265625 0 2.2265625 0 0 Z " fill="#FFFFFF" transform="translate(198,227)"/>
<path d="M0 0 C-1.78524649 1.19713017 -3.5784028 2.38247279 -5.375 3.5625 C-6.87160156 4.55443359 -6.87160156 4.55443359 -8.3984375 5.56640625 C-9.25695312 6.03949219 -10.11546875 6.51257813 -11 7 C-11.66 6.67 -12.32 6.34 -13 6 C-11.6100869 3.22017379 -9.81341647 3.12536659 -7 2 C-6.67 1.34 -6.34 0.68 -6 0 C-2.49056604 -1.24528302 -2.49056604 -1.24528302 0 0 Z " fill="#FFFFFF" transform="translate(382,356)"/>
<path d="M0 0 C-4.29 2.64 -8.58 5.28 -13 8 C-13 7.01 -13 6.02 -13 5 C-8.77777778 2 -8.77777778 2 -6 2 C-6 1.34 -6 0.68 -6 0 C-4 -1 -4 -1 0 0 Z " fill="#FFFFFF" transform="translate(328,300)"/>
<path d="M0 0 C-0.33 3.3 -0.66 6.6 -1 10 C-1.66 9.34 -2.32 8.68 -3 8 C-3 6.68 -3 5.36 -3 4 C-3.99 3.67 -4.98 3.34 -6 3 C-1.125 0 -1.125 0 0 0 Z " fill="#FFFFFF" transform="translate(343,426)"/>
<path d="M0 0 C0.99 0.495 0.99 0.495 2 1 C2 1.66 2 2.32 2 3 C2.66 3 3.32 3 4 3 C4.103125 3.639375 4.20625 4.27875 4.3125 4.9375 C4.539375 5.618125 4.76625 6.29875 5 7 C5.99 7.33 6.98 7.66 8 8 C8.33 9.65 8.66 11.3 9 13 C5.41193683 9.61127367 2.54315201 6.23858668 0 2 C0 1.34 0 0.68 0 0 Z " fill="#FFFFFF" transform="translate(422,243)"/>
<path d="M0 0 C-1.13914261 3.41742782 -2.06390308 4.12880598 -4.875 6.25 C-5.57367188 6.79140625 -6.27234375 7.3328125 -6.9921875 7.890625 C-7.65476562 8.25671875 -8.31734375 8.6228125 -9 9 C-9.99 8.67 -10.98 8.34 -12 8 C-10.37982158 6.66081194 -8.75370657 5.3288031 -7.125 4 C-6.22007812 3.2575 -5.31515625 2.515 -4.3828125 1.75 C-2 0 -2 0 0 0 Z " fill="#FFFFFF" transform="translate(357,234)"/>
<path d="M0 0 C1.32 0.33 2.64 0.66 4 1 C-0.455 3.97 -0.455 3.97 -5 7 C-5 4 -5 4 -4 2 C-2.68 2 -1.36 2 0 2 C0 1.34 0 0.68 0 0 Z " fill="#FFFFFF" transform="translate(332,418)"/>
<path d="M0 0 C0 3.57575896 -1.08840607 5.05295935 -3 8 C-3.66 7.34 -4.32 6.68 -5 6 C-5.99 5.67 -6.98 5.34 -8 5 C-4.04 2.525 -4.04 2.525 0 0 Z " fill="#FFFFFF" transform="translate(449,325)"/>
<path d="M0 0 C3.0916909 2.52956528 3.90931332 5.22454612 5 9 C3.02 7.68 1.04 6.36 -1 5 C-0.67 3.35 -0.34 1.7 0 0 Z " fill="#FFFFFF" transform="translate(314,229)"/>
<path d="M0 0 C3.73487777 0.4979837 5.81237635 0.87491756 9 3 C8.360625 3.12375 7.72125 3.2475 7.0625 3.375 C6.381875 3.58125 5.70125 3.7875 5 4 C4.67 4.66 4.34 5.32 4 6 C2.62437146 4.71034824 1.29233607 3.37310707 0 2 C0 1.34 0 0.68 0 0 Z " fill="#FFFFFF" transform="translate(158,176)"/>
<path d="M0 0 C2.92842431 2.82383772 5.68010389 5.64903895 8 9 C7.67 9.99 7.34 10.98 7 12 C5.82767315 10.3790787 4.6622923 8.75313167 3.5 7.125 C2.8503125 6.22007812 2.200625 5.31515625 1.53125 4.3828125 C0 2 0 2 0 0 Z " fill="#FFFFFF" transform="translate(591,602)"/>
<path d="M0 0 C4.55015893 1.51671964 6.50057264 5.16891053 9 9 C8.67 9.66 8.34 10.32 8 11 C6.66375099 9.35653302 5.33107149 7.71016314 4 6.0625 C3.2575 5.14597656 2.515 4.22945313 1.75 3.28515625 C0 1 0 1 0 0 Z " fill="#FFFFFF" transform="translate(462,295)"/>
<path d="M0 0 C0.99 0.99 1.98 1.98 3 3 C2 6 2 6 -1.0625 7.6875 C-2.031875 8.120625 -3.00125 8.55375 -4 9 C-4.33 8.34 -4.66 7.68 -5 7 C-4.01 7 -3.02 7 -2 7 C-1.34 4.69 -0.68 2.38 0 0 Z " fill="#FFFFFF" transform="translate(579,274)"/>
<path d="M0 0 C2.31 0.33 4.62 0.66 7 1 C7 1.66 7 2.32 7 3 C8.32 3.33 9.64 3.66 11 4 C11 4.66 11 5.32 11 6 C7.2089881 4.55049545 3.6125362 2.84827434 0 1 C0 0.67 0 0.34 0 0 Z " fill="#FFFFFF" transform="translate(249,137)"/>
<path d="M0 0 C0.66 0.66 1.32 1.32 2 2 C1.67 2.99 1.34 3.98 1 5 C-1.31 5 -3.62 5 -6 5 C-2.25 1.125 -2.25 1.125 0 0 Z " fill="#FFFFFF" transform="translate(322,473)"/>
<path d="M0 0 C3.53372712 1.96318174 6.24479785 4.04070881 9 7 C8.67 7.99 8.34 8.98 8 10 C7.4225 9.236875 6.845 8.47375 6.25 7.6875 C4.16642802 4.99108421 4.16642802 4.99108421 1.75 3.3125 C1.1725 2.879375 0.595 2.44625 0 2 C0 1.34 0 0.68 0 0 Z " fill="#FFFFFF" transform="translate(683,544)"/>
<path d="M0 0 C0.98726527 2.66561622 1.0275526 3.90126985 0.25 6.6875 C-1 9 -1 9 -4 10 C-2.8905928 6.51329166 -1.73662334 3.22515763 0 0 Z " fill="#FFFFFF" transform="translate(413,417)"/>
<path d="M0 0 C3.37503669 1.1858237 5.64722731 2.27573689 8 5 C7.67 5.99 7.34 6.98 7 8 C5.83035398 6.8572081 4.66435444 5.71068285 3.5 4.5625 C2.8503125 3.92441406 2.200625 3.28632813 1.53125 2.62890625 C0 1 0 1 0 0 Z " fill="#FFFFFF" transform="translate(212,283)"/>
<path d="M0 0 C-0.33 3.96 -0.66 7.92 -1 12 C-1.33 12 -1.66 12 -2 12 C-2 9.03 -2 6.06 -2 3 C-2.66 2.67 -3.32 2.34 -4 2 C-1 0 -1 0 0 0 Z " fill="#FFFFFF" transform="translate(377,218)"/>
<path d="M0 0 C0.33 0.66 0.66 1.32 1 2 C-1.57784846 4.64752004 -3.91648098 6.94432065 -7 9 C-5.44499019 5.18315774 -2.96404505 2.80804268 0 0 Z " fill="#FFFFFF" transform="translate(397,560)"/>
<path d="M0 0 C0 4.38968456 -2.12805101 5.76905739 -5 9 C-5.33 8.01 -5.66 7.02 -6 6 C-4.02 4.02 -2.04 2.04 0 0 Z " fill="#FFFFFF" transform="translate(409,547)"/>
<path d="M0 0 C1 3.875 1 3.875 1 5 C-0.65 5 -2.3 5 -4 5 C-4.33 4.34 -4.66 3.68 -5 3 C-3.35 2.01 -1.7 1.02 0 0 Z " fill="#FFFFFF" transform="translate(267,473)"/>
<path d="M0 0 C0.99 0.33 1.98 0.66 3 1 C3 4.51716303 2.17554415 5.37121748 0 8 C-1.09658936 4.71023192 -0.79953138 3.28696233 0 0 Z " fill="#FFFFFF" transform="translate(523,294)"/>
<path d="M0 0 C2.64752004 2.57784846 4.94432065 4.91648098 7 8 C6.01 8.495 6.01 8.495 5 9 C4.16094435 7.87926138 3.32892169 6.75325453 2.5 5.625 C2.0359375 4.99851562 1.571875 4.37203125 1.09375 3.7265625 C0 2 0 2 0 0 Z " fill="#FFFFFF" transform="translate(414,584)"/>
<path d="M0 0 C-0.625 1.9375 -0.625 1.9375 -2 4 C-5.125 4.75 -5.125 4.75 -8 5 C-3.16129032 0 -3.16129032 0 0 0 Z " fill="#FFFFFF" transform="translate(399,346)"/>
<path d="M0 0 C0 0.66 0 1.32 0 2 C-2.30276574 4.21747812 -3.52480092 4.96760006 -6.75 5.1875 C-7.86375 5.0946875 -7.86375 5.0946875 -9 5 C-2.40909091 0 -2.40909091 0 0 0 Z " fill="#FFFFFF" transform="translate(571,297)"/>
</svg>
